<?xml version="1.0" standalone="no"?>
<!DOCTYPE svg PUBLIC "-//W3C//DTD SVG 1.1//EN" "http://www.w3.org/Graphics/SVG/1.1/DTD/svg11.dtd" >
<!--
2013-9-30: Created.
-->
<svg>
<metadata>
Created by iconfont
</metadata>
<defs>

<font id="iconfont" horiz-adv-x="1024" >
  <font-face
    font-family="iconfont"
    font-weight="500"
    font-stretch="normal"
    units-per-em="1024"
    ascent="896"
    descent="-128"
  />
    <missing-glyph />
    
    <glyph glyph-name="x" unicode="x" horiz-adv-x="1001"
d="M281 543q-27 -1 -53 -1h-83q-18 0 -36.5 -6t-32.5 -18.5t-23 -32t-9 -45.5v-76h912v41q0 16 -0.5 30t-0.5 18q0 13 -5 29t-17 29.5t-31.5 22.5t-49.5 9h-133v-97h-438v97zM955 310v-52q0 -23 0.5 -52t0.5 -58t-10.5 -47.5t-26 -30t-33 -16t-31.5 -4.5q-14 -1 -29.5 -0.5
t-29.5 0.5h-32l-45 128h-439l-44 -128h-29h-34q-20 0 -45 1q-25 0 -41 9.5t-25.5 23t-13.5 29.5t-4 30v167h911zM163 247q-12 0 -21 -8.5t-9 -21.5t9 -21.5t21 -8.5q13 0 22 8.5t9 21.5t-9 21.5t-22 8.5zM316 123q-8 -26 -14 -48q-5 -19 -10.5 -37t-7.5 -25t-3 -15t1 -14.5
t9.5 -10.5t21.5 -4h37h67h81h80h64h36q23 0 34 12t2 38q-5 13 -9.5 30.5t-9.5 34.5q-5 19 -11 39h-368zM336 498v228q0 11 2.5 23t10 21.5t20.5 15.5t34 6h188q31 0 51.5 -14.5t20.5 -52.5v-227h-327z" />
    

    
    <glyph glyph-name="swapcalls" unicode="&#59596;" d="M768 725.333333l-170.666667-170.666667 128 0 0-298.666667c0-47.146667-38.186667-85.333333-85.333333-85.333333s-85.333333 38.186667-85.333333 85.333333l0 298.666667c0 94.08-76.586667 170.666667-170.666667 170.666667s-170.666667-76.586667-170.666667-170.666667l0-298.666667-128 0 170.666667-170.666667 170.666667 170.666667-128 0 0 298.666667c0 47.146667 38.186667 85.333333 85.333333 85.333333s85.333333-38.186667 85.333333-85.333333l0-298.666667c0-94.08 76.586667-170.666667 170.666667-170.666667s170.666667 76.586667 170.666667 170.666667l0 298.666667 128 0-170.666667 170.666667z"  horiz-adv-x="1024" />

    
    <glyph glyph-name="msnui-state-leave" unicode="&#59200;" d="M870.4 798.666h-716.8c-49.472 0-89.6-40.96-89.6-91.392v-457.216c0-50.432 40.128-91.392 89.6-91.392h716.8c49.472 0 89.6 40.96 89.6 91.456v457.152c0 50.432-40.128 91.392-89.6 91.392zM672 414.666h-192c-17.664 0-32 14.336-32 32v192c0 17.664 14.336 32 32 32s32-14.336 32-32v-160h160c17.664 0 32-14.336 32-32s-14.336-32-32-32zM585.856 94.666h-147.648c0 0-29.632-85.312-118.208-85.312v-42.688h384v42.688c-88.64 0-118.144 85.312-118.144 85.312z"  horiz-adv-x="1024" />

    
    <glyph glyph-name="msnui-state-offline" unicode="&#59201;" d="M870.4 798.666h-716.8c-49.472 0-89.6-40.96-89.6-91.392v-457.216c0-50.432 40.128-91.392 89.6-91.392h716.8c49.472 0 89.6 40.96 89.6 91.456v457.152c0 50.432-40.128 91.392-89.6 91.392zM705.92 352.586l-67.84-67.84-126.080 126.016-126.080-126.080-67.84 67.904 126.016 126.080-126.016 126.080 67.84 67.84 126.080-126.016 126.080 126.080 67.84-67.904-126.016-126.080 126.016-126.080zM585.856 94.666h-147.648c0 0-29.632-85.312-118.208-85.312v-42.688h384v42.688c-88.64 0-118.144 85.312-118.144 85.312z"  horiz-adv-x="1024" />

    
    <glyph glyph-name="msnui-state-busy" unicode="&#59202;" d="M585.856 94.666h-147.648c0 0-29.632-85.312-118.208-85.312v-42.688h384v42.688c-88.64 0-118.144 85.312-118.144 85.312zM870.4 798.666h-716.8c-49.472 0-89.6-40.96-89.6-91.392v-457.216c0-50.432 40.128-91.392 89.6-91.392h716.8c49.472 0 89.6 40.96 89.6 91.456v457.152c0 50.432-40.128 91.392-89.6 91.392zM672 414.666h-320c-35.2 0-64 14.4-64 32s28.8 32 64 32h320c35.2 0 64-14.4 64-32s-28.8-32-64-32z"  horiz-adv-x="1024" />

    
    <glyph glyph-name="msnui-state-poweron" unicode="&#59203;" d="M905.75 776.319h-787.5c-31.050 0-56.25-25.144-56.25-56.25v-506.25c0-31.106 25.2-56.25 56.25-56.25h225v-112.5h-56.25v-56.25h450v56.25h-56.25v112.5h225c31.106 0 56.25 25.144 56.25 56.25v506.25c0 31.106-25.144 56.25-56.25 56.25zM849.5 270.069h-675v393.75h675v-393.75zM737 326.319c28.181 0 56.25 28.069 56.25 56.25s-28.069 56.25-56.25 56.25c-28.125 0-56.25-28.069-56.25-56.25s28.125-56.25 56.25-56.25z"  horiz-adv-x="1024" />

    
    <glyph glyph-name="kernel" unicode="&#59924;" d="M800.448 812l-800.448 0 0-800.448c0-123.456 100.096-223.552 223.552-223.552l800.448 0 0 800.448c0 123.456-100.096 223.552-223.552 223.552zM911.68-99.68l-799.36 0 0 799.36 799.296 0 0-799.36zM214.08 597.92l254.336 0 0-254.336-254.336 0 0 254.336zM548.352 597.92l254.336 0 0-254.336-254.336 0 0 254.336zM548.352 256.416l254.336 0 0-254.336-254.336 0 0 254.336zM214.08 256.416l254.336 0 0-254.336-254.336 0 0 254.336z"  horiz-adv-x="1024" />

    
    <glyph glyph-name="yunzhuji" unicode="&#59006;" d="M0 812l0-239.68 1024 0L1024 812 0 812zM183.168 640.096 72.512 640.096 72.512 744.16l110.656 0L183.168 640.096zM347.584 640.096 236.928 640.096 236.928 744.16l110.656 0L347.584 640.096zM512.064 640.096 401.344 640.096 401.344 744.16l110.656 0L512 640.096zM0 419.808l0-239.68 1024 0L1024 419.808 0 419.808zM183.168 248.032 72.512 248.032 72.512 352.032l110.656 0L183.168 248.032zM347.584 248.032 236.928 248.032 236.928 352.032l110.656 0L347.584 248.032zM512.064 248.032 401.344 248.032 401.344 352.032l110.656 0L512 248.032zM0 27.68 0-212l1024 0 0 239.68L0 27.68zM183.168-144.16 72.512-144.16l0 104.064 110.656 0L183.168-144.16zM347.584-144.16 236.928-144.16l0 104.064 110.656 0L347.584-144.16zM512.064-144.16 401.344-144.16l0 104.064 110.656 0L512-144.16z"  horiz-adv-x="1024" />

    
    <glyph glyph-name="xuliehaoguanli" unicode="&#58916;" d="M0 894.04406l134.090581 0 0-1022.044059L0-128 0 894.04406 0 894.04406zM177.838448 894.04406l63.046479 0 0-1022.044059L177.838448-128 177.838448 894.04406 177.838448 894.04406zM322.904028 894.04406l79.345982 0 0-1022.044059-79.345982 0L322.904028 894.04406 322.904028 894.04406zM538.383463 894.04406l136.915828 0 0-1022.044059-136.915828 0L538.383463 894.04406 538.383463 894.04406zM745.887007 894.04406l52.07148 0 0-1022.044059-52.07148 0L745.887007 894.04406 745.887007 894.04406zM862.526253 894.04406 1043.168216 894.04406l0-1022.044059-180.663695 0L862.50452 894.04406 862.526253 894.04406zM862.526253 894.04406"  horiz-adv-x="1044" />

    
    <glyph glyph-name="xuliehao" unicode="&#58925;" d="M227.397101 483.172115 1109.45158 483.172115 1109.45158 283.866043 227.397101 283.866043 227.397101 483.172115ZM276.410576 411.143471 1060.438104 411.143471 1060.438104 362.013336 276.410576 362.013336 276.410576 411.143471ZM227.397101 826.675942 1109.45158 826.675942 1109.45158 627.300827 227.397101 627.300827 227.397101 826.675942ZM276.410576 754.578255 1060.438104 754.578255 1060.438104 705.514782 276.410576 705.514782 276.410576 754.578255ZM227.397101 139.670669 1109.45158 139.670669 1109.45158-59.635403 227.397101-59.635403 227.397101 139.670669ZM276.410576 67.639644 1060.438104 67.639644 1060.438104 18.578552 276.410576 18.578552 276.410576 67.639644ZM52.377543 659.658244 52.377543 821.552466 73.804719 821.552466 73.804719 659.658244 52.377543 659.658244ZM9.532713 677.509463l107.135882 0 0-21.427176-107.135882 0 0 21.427176ZM0.009523 287.058692l116.659072 0 0-21.427176-116.659072 0 0 21.427176ZM9.52319 440.624885 9.52319 416.816911C9.52319 416.816911 42.611512 448.838636 71.423922 435.86329 71.423922 435.86329 93.893887 430.677913 90.470301 393.008937 90.470301 393.008937 82.247027 372.698355 69.043124 359.677774L0 288.253853 28.569569 288.253853C28.569569 288.253853 99.236397 357.84456 107.135882 373.962558 107.135882 373.962558 122.592019 420.599998 99.99349 445.38648 99.99349 445.38648 60.353214 478.900964 9.52319 440.624885ZM11.903987 104.932454 11.903987 81.12448C11.903987 81.12448 33.343068 99.299488 57.139137 93.028467 57.139137 93.028467 85.142076 90.211984 80.947111 59.697304 80.947111 59.697304 81.344704 35.646489 54.75834 31.127735L21.427177 31.127735 21.427177 9.700559 57.139137 9.700559C57.139137 9.700559 89.679876-0.132134 88.089503-26.011402 88.089503-26.011402 90.182224-53.831019 57.139137-59.342565 57.139137-59.342565 28.643374-61.223395 7.142392-47.438578L7.142392-71.246552C7.142392-71.246552 27.355362-82.400588 47.615948-80.769742 47.615948-80.769742 103.076623-86.928864 111.897477-26.011402 111.897477-26.011402 116.332903 15.52637 69.043124 19.223748 69.043124 19.223748 107.312061 31.156305 104.755085 73.982088 104.755085 73.982088 103.788481 134.171027 11.903987 104.932454ZM5.951994 832.266054 74.995118 848.931636 74.995118 820.362067 8.332791 808.45808 5.951994 832.266054Z"  horiz-adv-x="1110" />

    
    <glyph glyph-name="zhuangtaijiankong" unicode="&#59090;" d="M924 832 100 832c-55.2 0-100-44.8-100-100l0-568c0-55.2 44.8-100 100-100l380 0 0-64L224 0c-17.7 0-32-14.3-32-32s14.3-32 32-32l576 0c17.7 0 32 14.3 32 32s-14.3 32-32 32L544 0l0 64 380 0c55.2 0 100 44.8 100 100l0 568C1024 787.3 979.2 832 924 832zM960 164c0-19.9-16.1-36-36-36L100 128c-19.9 0-36 16.1-36 36l0 568c0 19.9 16.1 36 36 36l824 0c19.9 0 36-16.1 36-36L960 164zM512 708c-159.5 0-307.8-94.3-380.7-241.9-4.2-8.5-4.6-19 0-27.7 72.9-148 221.2-242.4 380.7-242.4 159.4 0 307.4 94.3 380.7 241.9l0 0.4c4.2 8.1 4.6 18.6 0 27.7C819.4 613.7 671.4 708 512 708zM700.3 315.6c-57.2-36.4-122.3-55.6-188.3-55.6-66.1 0-131.2 19.2-188.4 55.7-53.1 33.8-96.9 80.8-127.3 136.5C226.7 507.8 270.4 554.7 323.5 588.4 380.8 624.8 446 644 512 644c66 0 131.1-19.2 188.3-55.6 53.1-33.7 96.9-80.7 127.6-136.4C797.2 396.3 753.3 349.4 700.3 315.6zM512 576c-70.6 0-128-57.5-128-128.1 0-70.5 57.4-127.9 128-127.9 70.6 0 128 57.4 128 127.9C640 518.6 582.6 576 512 576zM512 384c-35.3 0-64 28.7-64 63.9 0 35.4 28.7 64.1 64 64.1 35.3 0 64-28.8 64-64.1C576 412.7 547.3 384 512 384z"  horiz-adv-x="1024" />

    
    <glyph glyph-name="shangjiarenzheng" unicode="&#58903;" d="M871.443311 732.509783c-262.848805 0-336.150721 98.946176-336.40656 99.433293l-44.899713-0.369431c-0.461533-1.001865-75.634142-99.063862-337.662217-99.063862L128.249955 732.509783l0-491.948377c0-198.510458 360.369447-294.745766 374.501984-301.001537l9.679918-4.296045 9.732109 4.296045c14.108999 6.255771 373.480675 102.489032 373.480675 301.001537L895.64464 732.509783 871.443311 732.509783zM847.220491 240.561406c0-150.037189-281.856606-226.392797-334.888924-251.697303-94.148686 43.788349-335.62881 118.11362-335.62881 251.697303L176.702757 683.877893c188.861241 4.403498 300.925809 59.98704 335.681001 96.823737 34.576105-36.915495 145.412646-92.422286 334.836733-96.823737L847.220491 240.561406zM476.694243 630.899813c8.340346-13.854184 15.474155-26.493645 21.212108-37.821165L289.634107 593.078648l0-33.981536 447.667793 0 0 33.981536L540.591523 593.078648c-10.042185 19.951335-19.617721 38.152732-28.729676 54.578607L476.694243 630.899813zM623.180388 535.152646l-34.678441 21.057582c-12.899393-22.9907-27.085144-44.820915-42.427287-65.567397L442.507013 490.642831l24.610671 17.683579c-11.869898 15.344189-25.126442 31.922545-39.696975 49.815912l-27.855731-19.615674c12.329384-15.807769 23.735703-31.770065 34.240445-47.883817L319.851741 490.642831l0-317.401829 34.216907 0L354.068649 457.613016l315.122817 0 0-207.292893c0-22.98763-9.910173-34.49833-29.681397-34.49833-15.526346 0-35.322131 1.315012-59.342326 3.835536 2.112205-8.289178 4.429082-21.700249 6.849317-40.187162 23.734679-0.669274 45.049123-0.79924 63.896257-0.515771 34.986471 0.310077 52.467426 20.595025 52.467426 60.835402L703.380742 490.641808 586.700842 490.641808C596.558824 502.304988 608.738799 517.134429 623.180388 535.152646zM456.641596 452.335573c-31.050646-30.662794-63.302711-57.617973-96.750055-80.912609 5.179201-5.76763 12.333478-15.162032 21.44748-28.215952 30.995385 24.22282 64.309693 52.310852 99.938831 84.23442L456.641596 452.335573zM659.249569 380.997476c-23.119643 17.892344-57.179977 41.652607-102.205562 71.338097l-20.106885-26.313534c36.1971-24.611695 69.353811-49.656269 99.502881-75.196146L659.249569 380.997476zM604.487781 374.795943 421.498552 374.795943l0-154.159264 32.850728 0 0 25.355674 150.142594 0L604.491874 374.795943 604.487781 374.795943 604.487781 374.795943zM571.640123 276.657194 454.348257 276.657194l0 67.476978 117.291866 0L571.640123 276.657194z"  horiz-adv-x="1025" />

    
    <glyph glyph-name="17" unicode="&#58937;" d="M58.304 141.056c0-116.416 94.4-210.816 210.816-210.816s210.816 94.4 210.816 210.816l-0 210.816h-210.88c-116.416 0-210.752-94.4-210.752-210.816zM403.392 141.056c0-74.112-60.288-134.336-134.336-134.336s-134.336 60.288-134.336 134.336 60.288 134.336 134.336 134.336h134.336v-134.336zM965.696 626.944c0 116.416-94.4 210.816-210.816 210.816s-210.816-94.4-210.816-210.816v-210.816h210.816c116.48-0 210.816 94.4 210.816 210.816zM620.544 626.944c0 74.112 60.288 134.336 134.336 134.336s134.336-60.288 134.336-134.336c0-74.112-60.288-134.336-134.336-134.336h-134.336v134.336zM269.056 416.128h210.816l0 210.816c0 116.416-94.4 210.816-210.816 210.816-116.416 0-210.816-94.4-210.816-210.816 0.064-116.416 94.4-210.816 210.816-210.816zM269.056 761.28c74.112 0 134.336-60.288 134.336-134.336v-134.336l-134.336 0c-74.112 0-134.336 60.288-134.336 134.336 0 74.048 60.288 134.336 134.336 134.336zM754.944 351.872h-210.816v-210.816c0-116.416 94.4-210.816 210.816-210.816s210.816 94.4 210.816 210.816-94.4 210.816-210.816 210.816zM754.944 6.72c-74.112 0-134.336 60.288-134.336 134.336v134.336h134.336c74.112 0 134.336-60.288 134.336-134.336s-60.288-134.336-134.336-134.336z"  horiz-adv-x="1024" />

    
    <glyph glyph-name="iconfontwo" unicode="&#58884;" d="M499.2 620.8m-275.2 0a4.3 4.3 0 1 0 550.4 0 4.3 4.3 0 1 0-550.4 0ZM710.4 313.6c-44.8-64-121.6-108.8-211.2-108.8-83.2 0-160 44.8-211.2 108.8-128-70.4-217.6-204.8-217.6-358.4 0-25.6 0-57.6 6.4-83.2l838.4 0c6.4 25.6 6.4 57.6 6.4 83.2C928 108.8 838.4 243.2 710.4 313.6z"  horiz-adv-x="1024" />

    
    <glyph glyph-name="yunzhujiico" unicode="&#58930;" d="M173.568 821.248l51.2 0 0-136.192-51.2 0 0 136.192ZM289.28 821.248l51.2 0 0-136.192-51.2 0 0 136.192ZM765.44 752.64m-63.488 0a6.2 6.2 0 1 0 126.976 0 6.2 6.2 0 1 0-126.976 0ZM905.728 894.976 113.152 894.976C85.504 894.976 64 872.448 64 844.8l0-184.32c0-27.648 22.528-49.152 49.152-49.152l792.576 0c27.648 0 49.152 22.528 49.152 49.152L954.88 844.8C954.88 872.448 932.352 894.976 905.728 894.976zM912.896 660.48c0-4.096-3.072-7.168-7.168-7.168L113.152 653.312c-4.096 0-7.168 3.072-7.168 7.168L105.984 844.8c0 4.096 3.072 7.168 7.168 7.168l792.576 0c4.096 0 7.168-3.072 7.168-7.168L912.896 660.48zM173.568 453.632l51.2 0 0-136.192-51.2 0 0 136.192ZM289.28 453.632l51.2 0 0-136.192-51.2 0 0 136.192ZM765.44 386.048m-63.488 0a6.2 6.2 0 1 0 126.976 0 6.2 6.2 0 1 0-126.976 0ZM905.728 527.36 113.152 527.36c-27.648 0-49.152-22.528-49.152-49.152l0-184.32c0-27.648 22.528-49.152 49.152-49.152l792.576 0c27.648 0 49.152 22.528 49.152 49.152l0 184.32C954.88 504.832 932.352 527.36 905.728 527.36zM912.896 293.888c0-4.096-3.072-7.168-7.168-7.168L113.152 286.72c-4.096 0-7.168 3.072-7.168 7.168l0 184.32c0 4.096 3.072 7.168 7.168 7.168l792.576 0c4.096 0 7.168-3.072 7.168-7.168L912.896 293.888zM173.568 87.04l51.2 0 0-136.192-51.2 0 0 136.192ZM289.28 87.04l51.2 0 0-136.192-51.2 0 0 136.192ZM765.44 18.432m-63.488 0a6.2 6.2 0 1 0 126.976 0 6.2 6.2 0 1 0-126.976 0ZM905.728 160.768 113.152 160.768c-27.648 0-49.152-22.528-49.152-49.152l0-184.32c0-27.648 22.528-49.152 49.152-49.152l792.576 0c27.648 0 49.152 22.528 49.152 49.152l0 184.32C954.88 138.24 932.352 160.768 905.728 160.768zM912.896-72.704c0-4.096-3.072-7.168-7.168-7.168L113.152-79.872c-4.096 0-7.168 3.072-7.168 7.168l0 184.32C105.984 114.688 109.056 117.76 113.152 117.76l792.576 0c4.096 0 7.168-3.072 7.168-7.168L912.896-72.704z"  horiz-adv-x="1024" />

    
    <glyph glyph-name="type" unicode="&#59072;" d="M489.714 507.635c0-56.246-45.635-101.881-101.881-101.881h-251.51c-56.245 0.531-101.881 46.166-101.881 101.881v252.043c0 56.245 45.635 101.882 101.881 101.882h251.51c56.245 0 101.881-45.636 101.881-101.882v-252.043zM431.342 759.677c0 23.881-19.099 42.983-42.978 42.983h-252.043c-23.879 0-42.982-19.103-42.982-42.983v-252.042c0-23.881 19.103-42.978 42.982-42.978h251.51c23.879 0 42.982 19.098 42.982 42.978v252.042h0.527zM151.711 626.494c-7.959 0-14.857 6.366-14.857 14.858v26.53c0 40.858 27.057 76.407 64.731 76.407h91.802c7.954 0 14.855-6.367 14.855-14.858 0-7.956-6.368-14.858-14.855-14.858h-91.801c-22.816 0-35.018-25.468-35.018-47.222v-26.533c0-7.959-6.371-14.325-14.858-14.325v0 0zM146.402 576.085c-3.713 0-7.428 1.589-10.611 4.241-2.652 2.658-4.246 6.901-4.246 10.619 0 3.714 1.595 7.429 4.246 10.612 5.302 5.301 15.389 5.301 20.691 0 2.658-2.658 4.247-6.37 4.247-10.612 0-3.715-1.589-7.43-4.247-10.085-2.653-3.184-6.366-4.773-10.080-4.773v0 0zM989.557 507.635c0-56.246-45.635-101.881-101.879-101.881h-252.045c-56.246 0-101.879 45.634-101.879 101.881v252.043c0 56.245 45.633 101.882 101.879 101.882h252.044c56.244 0 101.879-45.636 101.879-101.882v-252.043h0.001zM930.656 759.677c0 23.881-19.099 42.983-42.978 42.983h-252.045c-23.877 0-42.983-19.103-42.983-42.983v-252.042c0-23.881 19.106-42.978 42.983-42.978h252.044c23.879 0 42.978 19.098 42.978 42.978v252.042h0.001zM489.714 8.321c0-56.243-45.635-101.878-101.881-101.878h-251.51c-56.245 0-101.881 45.635-101.881 101.878v252.045c0 56.246 45.635 101.881 101.881 101.881h251.51c56.245 0 101.881-45.634 101.881-101.881v-252.045zM431.342 260.365c0 23.881-19.099 42.983-42.978 42.983h-252.043c-23.879 0-42.982-19.103-42.982-42.983v-252.045c0-23.878 19.103-42.977 42.982-42.977h251.51c23.879 0 42.982 19.099 42.982 42.977v252.045h0.527zM989.557 8.321c0-56.243-45.635-101.878-101.879-101.878h-252.045c-56.246 0-101.879 45.635-101.879 101.878v252.045c0 56.246 45.633 101.881 101.879 101.881h252.044c56.244 0 101.879-45.634 101.879-101.881v-252.045h0.001zM930.656 260.365c0 23.881-19.099 42.983-42.978 42.983h-252.045c-23.877 0-42.983-19.103-42.983-42.983v-252.045c0-23.878 19.106-42.977 42.983-42.977h252.044c23.879 0 42.978 19.099 42.978 42.977v252.045h0.001zM930.656 260.365z"  horiz-adv-x="1024" />

    
    <glyph glyph-name="cpu" unicode="&#58945;" d="M906.26 498 906.26 558.8l-72.1-0.2 0 94.3c0 23.9-12.3 37.3-36.2 37.3l-86.9 0 0 73.8-61.5 0 0-73.8-92.4 0L557.16 764l-61.5 0-0.1-73.8L403.16 690.2l0.2 73.8-61.8 0 0.1-73.8-80.9 0c-29.7 0-41.9-13.4-41.7-44.4l-0.6-87.2-73.4 0L145.06 498l73.4 0 0-84.9-73.4 0.1 0-61.5 73.4-0.2 0-86.2-73.4 0 0-60.4 73.4 0 0-82.4c0-34 13.7-48.1 47.8-48.1l75.4 0-0.1-70.8 61.4 0 0.3 70.8 92.4 0 0-70.8 61.7 0-0.1 70.8 92.4 0-0.2-70.8 61.7 0 0.1 70.8 82.3 0c27.6 0 40.8 24.3 40.8 48.1l0 82.4 72.1 0 0 60.4L834.16 265.3l0 86.2 72.1 0 0 61.4-72.1 0.2L834.16 498 906.26 498zM772.56 136 280.06 136 280.06 628.6l492.6 0L772.66 136zM382.96 213.7l295.8 0c11.8 0 16.1 8.1 16.1 18.8L694.86 529c0 12.6-8.6 19.6-18.8 19.6L379.86 548.6c-15.4 0-19.9-5.7-19.9-21.2l0-290.6C359.96 221.4 367.56 213.7 382.96 213.7z"  horiz-adv-x="1099" />

    
    <glyph glyph-name="dituleiduankou" unicode="&#59841;" d="M0 832l0-832 960 0L960 832 0 832zM896 64 64 64 64 768l832 0L896 64zM832 512l-128 0L704 640l-64 0L640 704 320 704l0-64L256 640l0-128L128 512l0-384 704 0L832 512zM768 192 192 192 192 448l64 0 64 0L320 512 320 576l64 0L384 640l192 0 0-64 64 0 0-64 0-64 64 0 64 0L768 192zM256 384l64 0 0-128L256 256 256 384zM384 384l64 0 0-128L384 256 384 384zM512 384l64 0 0-128L512 256 512 384zM640 384l64 0 0-128-64 0L640 384z"  horiz-adv-x="1024" />

    
    <glyph glyph-name="ip" unicode="&#58958;" d="M1018.352941 384C1018.352941 650.136275 802.606863 865.882353 536.470588 865.882353 270.334313 865.882353 54.588235 650.136275 54.588235 384 54.588235 117.863725 270.334313-97.882353 536.470588-97.882353 802.606863-97.882353 1018.352941 117.863725 1018.352941 384ZM114.823529 384C114.823529 616.86924 303.601348 805.647059 536.470588 805.647059 769.339826 805.647059 958.117647 616.86924 958.117647 384 958.117647 151.130763 769.339826-37.647059 536.470588-37.647059 303.601348-37.647059 114.823529 151.130763 114.823529 384ZM312.395294 543.021176 312.395294 112.941176 361.185882 112.941176 361.185882 543.021176 312.395294 543.021176ZM475.202688 543.021176 475.202688 112.941176 524.595629 112.941176 524.595629 288.828235 650.487392 288.828235C749.273275 288.828235 799.268569 331.595294 799.268569 416.527059 799.268569 500.856471 749.875628 543.021176 651.089745 543.021176L475.202688 543.021176ZM524.595629 500.254118 648.077981 500.254118C682.412098 500.254118 707.710922 493.628235 724.576804 479.171765 741.442686 466.522353 749.875628 445.44 749.875628 416.527059 749.875628 387.614118 741.442686 366.531765 725.179157 352.677647 708.313275 338.823529 683.014451 331.595294 648.077981 331.595294L524.595629 331.595294 524.595629 500.254118Z"  horiz-adv-x="1024" />

    
    <glyph glyph-name="swap" unicode="&#59019;" d="M320 256H64c-35.328 0-64-28.672-64-64v-256a64 64 0 0 1 64-64h256a64 64 0 0 1 64 64V192c0 35.328-28.672 64-64 64z m-64-256H128v128h128v-128zM960 896H704a64 64 0 0 1-64-64v-256a64 64 0 0 1 64-64h256a64 64 0 0 1 64 64V832a64 64 0 0 1-64 64z m-64-256h-128V768h128v-128zM448 832a64.021333 64.021333 0 0 0 0-128h-128c-35.328 0-64-28.672-64-64h64c25.856 0 49.28-15.616 59.136-39.488a64.106667 64.106667 0 0 0-13.888-69.76l-128-128A63.829333 63.829333 0 0 0 192 384a63.829333 63.829333 0 0 0-45.248 18.752l-128 128a64.213333 64.213333 0 0 0-13.888 69.76A64.042667 64.042667 0 0 0 64 640h64a192 192 0 0 0 192 192h128z m429.248-466.752l128-128a64.213333 64.213333 0 0 0 13.888-69.76A64.042667 64.042667 0 0 0 960 128h-64c0-105.984-86.016-192-192-192h-128a64 64 0 1 0 0 128h128c35.392 0 64 28.608 64 64h-64a64.042667 64.042667 0 0 0-59.136 39.488 64.106667 64.106667 0 0 0 13.888 69.76l128 128A63.829333 63.829333 0 0 0 832 384c16.384 0 32.768-6.272 45.248-18.752z"  horiz-adv-x="1024" />

    
    <glyph glyph-name="neicun" unicode="&#58928;" d="M863.438 615.875h-704c-17.673 0-32-14.327-32-32v-447.059c0-17.673 14.327-32 32-32h127.809c17.673 0 32 14.327 32 32V163.64h42.718v-56.375h64V163.64h51.947v-56.375h64V163.64h51.947v-56.375h64V163.64h45.608v-26.823c0-17.673 14.327-32 32-32h127.971c17.673 0 32 14.327 32 32V583.875c0 17.673-14.328 32-32 32z m-32-295.333h-33.559c-17.673 0-32-14.327-32-32s14.327-32 32-32h33.559v-87.726h-63.971V195.64c0 17.673-14.327 32-32 32H287.246c-17.673 0-32-14.327-32-32v-26.823h-63.809v87.726h32.559c17.673 0 32 14.327 32 32s-14.327 32-32 32h-32.559V551.875h640v-231.333zM256.477 500.443h80.279v-140h-80.279zM400.89 500.443h80.279v-140H400.89zM545.302 500.443h80.279v-140h-80.279zM689.715 500.443h80.279v-140h-80.279z"  horiz-adv-x="1024" />

    
    <glyph glyph-name="gongxiangtubiao_baojingduankoushezhi" unicode="&#58883;" d="M0 832v-832h960V832H0z m896-768H64V768h832v-704z m-64 448h-128V640h-64V704H320v-64H256v-128H128v-384h704V512z m-64-320H192V448h128V576h64V640h192v-64h64v-128h128v-256zM256 384h64v-128H256V384z m128 0h64v-128H384V384z m128 0h64v-128H512V384z m128 0h64v-128h-64V384z"  horiz-adv-x="1024" />

    
    <glyph glyph-name="cpu1" unicode="&#58987;" d="M45.344 834.656h933.32v-898.68H45.344zM874.688 557.312v152l-21.344 38.656H156l-13.312-225.312-16-220L156 207.968v-146.656l9.344-46.656H360l37.344 21.312 238.656 4 54.688-25.312 178.656 6.656 6.656 184 18.688 61.344L904 493.312zM228 672h564v-554.68H228zM56 21l-14-85.032s79 3.032 84.688 5.032S56 21 56 21zM1024 725.312c0 11.812-9.562 21.376-21.344 21.376V789.312c11.782 0 21.344 9.562 21.344 21.376C1024 822.438 1014.438 832 1002.656 832V853.312h-42.626c0 11.812-9.562 21.376-21.344 21.376s-21.344-9.562-21.344-21.376h-42.656c0 11.812-9.562 21.376-21.344 21.376s-21.312-9.562-21.312-21.376h-42.688c0 11.812-9.532 21.376-21.312 21.376s-21.344-9.562-21.344-21.376h-42.656c0 11.812-9.562 21.376-21.344 21.376s-21.344-9.562-21.344-21.376h-42.656c0 11.812-9.562 21.376-21.344 21.376s-21.312-9.562-21.312-21.376h-42.688c0 11.812-9.532 21.376-21.312 21.376s-21.344-9.562-21.344-21.376h-42.656c0 11.812-9.562 21.376-21.344 21.376s-21.344-9.562-21.344-21.376h-42.656c0 11.812-9.562 21.376-21.344 21.376s-21.312-9.562-21.312-21.376h-42.688c0 11.812-9.532 21.376-21.312 21.376s-21.344-9.562-21.344-21.376H192.032c0 11.812-9.562 21.376-21.344 21.376s-21.344-9.562-21.344-21.376H106.688c0 11.812-9.562 21.376-21.344 21.376s-21.312-9.562-21.312-21.376H21.344V832C9.562 832 0 822.438 0 810.688c0-11.812 9.562-21.376 21.344-21.376v-42.626C9.562 746.688 0 737.124 0 725.312 0 713.562 9.562 704 21.344 704v-42.688C9.562 661.312 0 651.782 0 640c0-11.782 9.562-21.312 21.344-21.312V576C9.562 576 0 566.438 0 554.688c0-11.812 9.562-21.376 21.344-21.376v-42.626C9.562 490.688 0 481.124 0 469.312 0 457.562 9.562 448 21.344 448v-42.688C9.562 405.312 0 395.782 0 384c0-11.782 9.562-21.312 21.344-21.312V320C9.562 320 0 310.438 0 298.688c0-11.812 9.562-21.376 21.344-21.376v-42.626C9.562 234.688 0 225.124 0 213.312 0 201.562 9.562 192 21.344 192v-42.688C9.562 149.312 0 139.782 0 128s9.562-21.312 21.344-21.312V64C9.562 64 0 54.438 0 42.688c0-11.812 9.562-21.376 21.344-21.376v-42.626C9.562-21.312 0-30.876 0-42.688 0-54.438 9.562-64 21.344-64v-21.312H64c0-11.812 9.562-21.376 21.344-21.376s21.312 9.562 21.312 21.376h42.688c0-11.812 9.532-21.376 21.312-21.376S192-97.126 192-85.312h42.656c0-11.812 9.562-21.376 21.344-21.376 11.782 0 21.344 9.562 21.344 21.376H320c0-11.812 9.562-21.376 21.344-21.376s21.312 9.562 21.312 21.376h42.688c0-11.812 9.532-21.376 21.312-21.376S448-97.126 448-85.312h42.656c0-11.812 9.562-21.376 21.344-21.376s21.344 9.562 21.344 21.376H576c0-11.812 9.562-21.376 21.344-21.376s21.312 9.562 21.312 21.376h42.688c0-11.812 9.532-21.376 21.312-21.376S704-97.126 704-85.312h42.656c0-11.812 9.562-21.376 21.344-21.376s21.344 9.562 21.344 21.376H832c0-11.812 9.562-21.376 21.344-21.376s21.312 9.562 21.312 21.376h42.688c0-11.812 9.532-21.376 21.312-21.376S960-97.126 960-85.312h42.656V-64c11.782 0 21.344 9.562 21.344 21.312 0 11.812-9.562 21.376-21.344 21.376v42.626c11.782 0 21.344 9.562 21.344 21.376 0 11.75-9.562 21.312-21.344 21.312v42.688c11.782 0 21.344 9.532 21.344 21.312s-9.562 21.312-21.344 21.312V192c11.782 0 21.344 9.562 21.344 21.312 0 11.812-9.562 21.376-21.344 21.376v42.626c11.782 0 21.344 9.562 21.344 21.376 0 11.75-9.562 21.312-21.344 21.312v42.688c11.782 0 21.344 9.532 21.344 21.312s-9.562 21.312-21.344 21.312V448c11.782 0 21.344 9.562 21.344 21.312 0 11.812-9.562 21.376-21.344 21.376v42.626c11.782 0 21.344 9.562 21.344 21.376 0 11.75-9.562 21.312-21.344 21.312v42.688c11.782 0 21.344 9.532 21.344 21.312s-9.562 21.312-21.344 21.312V704C1014.438 704 1024 713.562 1024 725.312z m-960-768v33.876l33.844-33.876H64z m896 725.376c-11.782 0-21.344-9.562-21.344-21.376 0-11.75 9.562-21.312 21.344-21.312v-682.688H158.156L64 51.5V640c11.782 0 21.344 9.562 21.344 21.312 0 11.812-9.562 21.376-21.344 21.376v128h896v-128zM128.032 42.688c0-23.562 19.126-42.688 42.688-42.688h192l42.656 21.312H640L682.656 0h170.688c23.562 0 42.656 19.126 42.656 42.688v170.626L917.376 256V512L896 554.688V725.312C896 748.874 876.906 768 853.344 768H170.718c-23.562 0-42.688-19.126-42.688-42.688v-170.626L106.656 512v-256l21.376-42.688v-170.624z m21.312 459.218l16.844 33.656 4.532 9V725.312h682.626v-180.752l4.5-9 16.876-33.656v-235.812l-16.876-33.656-4.5-9v-180.752h-160.594l-33.656 16.812-9.032 4.5H395.314l-9-4.5-33.656-16.812h-181.94v180.752l-4.532 9-16.844 33.656 0.002 235.814zM448-21.312c0 11.75-9.562 21.312-21.344 21.312s-21.312-9.562-21.312-21.312c0-11.812 9.532-21.376 21.312-21.376S448-33.126 448-21.312zM533.344-21.312c0 11.75-9.562 21.312-21.344 21.312s-21.344-9.562-21.344-21.312c0-11.812 9.562-21.376 21.344-21.376s21.344 9.562 21.344 21.376zM618.656-21.312c0 11.75-9.532 21.312-21.312 21.312S576-9.562 576-21.312c0-11.812 9.562-21.376 21.344-21.376s21.312 9.562 21.312 21.376zM810.656 682.688H213.344v-597.376h597.312V682.688zM768 128H256V640h512v-512zM374.594 299.438c37.126 0 57.688 22.438 60.718 55.562h-29.5c-2.468-19.782-13.156-30.438-31.032-30.438-21.906 0-35.812 17.876-35.812 45.876 0 22.688 10.094 46.062 36.188 46.062 16 0 27.032-8.75 30.094-23.594h29.126c-2.282 28-26.094 48.562-58.656 48.562-41.5 0-66.626-31.406-66.626-70.844 0-42.812 26.062-71.186 65.5-71.186zM494.968 351.406h30.468c27.25 0 48.188 13.718 48.188 43.218 0 29.876-20.376 43.594-49.718 43.594h-58.438v-135.562h29.5v48.75z m0 62.468h26.656c13.156 0 23.062-5.156 23.062-19.626 0-15.062-9.906-19.438-23.25-19.438h-26.468v39.064zM657.438 300c39.594 0 57.688 18.062 57.688 56.75v81.468h-29.688v-81.094c0-20-4.782-32.562-27.626-32.562-23.218 0-29.126 11.812-29.126 32.562v81.094H599v-81.094c0-38.656 18.062-57.124 58.438-57.124z"  horiz-adv-x="1024" />

    
    <glyph glyph-name="iconfont-wo" unicode="&#59021;" d="M251.455036 553.604914a337.405755 258.885322 90 1 1 517.770643 0 337.405755 258.885322 90 1 1-517.770643 0ZM219.908164 553.604914a67.806668 41.45392 90 1 1 82.90784 0 67.806668 41.45392 90 1 1-82.90784 0ZM715.982371 553.604914a67.806668 41.45392 90 1 1 82.907841 0 67.806668 41.45392 90 1 1-82.907841 0ZM0-128s37.802465 174.732024 340.660928 276.265115l169.693582-90.960855 160.989533 90.960855S864.064436 89.388943 1020.694867-128H0z"  horiz-adv-x="1025" />

    
    <glyph glyph-name="memory" unicode="&#58975;" d="M920 754.5v-101.9c-12.7-11-20.7-27.2-20.7-45.3s8-34.3 20.7-45.3v-548.6h-598.8v100.4h-120v-100.4h-97.2v549c12.4 11 20.2 27 20.2 44.9s-7.8 33.9-20.2 44.9v102.3h816M960 794.5h-896v-167.1h0.2c11 0 20-9 20-20s-9-20-20-20h-0.2v-613.9h177.2v100.4h40v-100.4h678.8v613.9h-0.7c-11 0-20 9-20 20s9 20 20 20h0.7v167.1zM481.9 113.8h-40v-120h40v120zM396.7 113.8h-40v-120h40v120zM567.1 113.8h-40v-120h40v120zM652.3 113.8h-40v-120h40v120zM737.6 113.8h-40v-120h40v120zM822.8 113.8h-40v-120h40v120zM782.8 554.2v-223.7h-541.6v223.7h541.6M822.8 594.2h-621.6v-303.7h621.5v303.7h0.1z"  horiz-adv-x="1024" />

    
    <glyph glyph-name="OS_LinuxRedhat" unicode="&#58995;" d="M511.939185 702.730491C312.101675 702.730491 149.969355 541.327949 149.969355 342.341846c0-40.259413 6.689631-79.059271 18.852595-115.183276h25.177337c22.258225 0 43.056895 5.351704 60.449935 14.352298 4.378667 2.310963 9.365483 3.648889 14.717187 3.64889 11.068298 0 20.67704-4.257038 26.636893-14.230669 5.230075-9.000594 10.095261-14.230669 16.055113-18.001188 5.108445-3.284 12.162965-6.081482 22.258226-5.594964 4.743556 0.243259 11.919705 1.337926 13.74415 6.324742 2.067704 5.716593-0.486519 9.973631-7.419408 12.771113-9.730372 4.135408-12.406224 9.973631-17.636299 19.217484-5.230075 9.243853-16.420002 14.109039-18.244447 31.380449-1.702815 17.028151 11.676446 38.434969 38.191709 31.623709 19.095855-4.865186 31.502079-28.461337 36.124005-36.488895 2.432593-4.257038 10.946668-9.243853 17.879558-2.797482 6.93289 6.324742 13.257632 6.324742 18.487707-1.702815 4.500297-6.93289 36.975413-50.111415 72.24801-51.206081 35.880746-1.216296 54.976601 8.027557 70.545195 7.541038 10.946668-0.364889 16.298373-5.959853 22.501485-6.93289 11.068298-1.702815 18.852595 8.149186 31.01556 7.662668 9.852001-0.486519 20.55541-7.05452 31.502079-7.05452s34.177931 13.136002 33.813042 7.784298c-0.486519-9.608742-8.027557-26.636893-9.852002-34.54282-1.337926-5.473334-0.12163-18.730966-3.527259-29.191115-2.919112-10.825039-13.014372-24.447559-15.568595-28.339708-8.878964-13.257632-15.325336-17.14978-22.501485-31.01556-8.027557-15.568595-21.406818-29.920893-24.812448-34.54282-4.378667-5.959853 25.055707 0.12163 35.515857 10.095261 8.878964 8.392446 24.447559 33.691412 49.138377 39.164746 16.663262 3.648889 19.947262 9.973631 18.001188 15.811854-0.364889 0.729778-0.486519 1.581185-0.486518 2.310964 0 2.310963 1.337926 4.257038 3.162371 5.108445 17.14978 7.05452 40.502673 11.554816 66.044898 11.554816 14.960447 0 29.799264-2.067704 43.786673-5.230075 36.732153 56.436156 58.138971 123.697351 58.138971 195.823732 0.12163 198.864473-162.01069 360.267015-361.96983 360.267016z m294.465376-353.212496c-17.27141-94.871125-173.200618-126.738092-324.872788-81.126975-144.496021 43.543414-271.355743 130.265352-256.638555 181.106545 8.514075 29.556004 55.706378 42.205488 118.467276 35.515857-9.487112-19.339114-8.878964-42.083858 32.718375-67.382825 50.841193-28.704597 136.711723-53.273785 159.942986-50.841192 8.635705 0.851408 16.420002 5.108445 8.635705 10.33852s-14.717187 15.568595-19.095854 33.691412c-2.432593 10.095261-5.230075 24.08267-59.720157 34.42119-117.12935 22.258225-112.629053 55.21986-109.223423 74.194085 0 0 10.46015 46.584155 14.717187 63.004157 4.378667 16.420002 15.446965 54.003563 90.978976 37.097043 43.543414-9.730372 67.139565 2.432593 79.1809 5.473334 32.596745 8.392446 68.720751 2.554223 88.668013-17.757929 20.67704-21.163559 49.016748-86.35705 62.639269-135.130538 6.93289-24.812448 5.108445-36.610524 1.581185-45.002969-2.554223-5.716593-4.013778-9.365483-12.527854-23.839411-1.459556-2.554223-0.243259-5.351704 3.040742-3.648889 22.623114 11.554816 27.73156 26.880152 31.258819 38.799857 61.666231-13.987409 98.155125-45.854377 90.249198-88.911272zM590.998456 179.844637c-0.364889 0-0.608148-0.12163-0.851408-0.364889-4.743556-5.351704-6.689631-7.176149-10.09526-9.852001-8.149186-6.568001-17.514669 0.851408-23.474522 4.378667-13.257632 7.784297-23.961041 2.797482-26.636893-3.162371-2.554223-6.081482 0.243259-13.257632 7.541038-12.406224 10.095261 1.337926 10.581779-0.243259 17.879558-4.865186 13.62252-8.635705 23.596152-3.892149 28.704597 0.12163 4.257038 3.40563 6.689631 6.324742 8.878964 10.33852 3.892149 7.784297 0.729778 13.74415-1.216296 15.568595-0.243259 0.12163-0.486519 0.243259-0.729778 0.243259zM474.598883 554.342321c-17.636299 0-30.285782-2.310963-41.35408-2.554223-10.946668-0.243259-19.460744 7.784297-23.352892 12.649484-3.284 4.013778-13.62252 7.905927-19.339114-5.108446-5.716593-13.136002 4.865186-27.123411 13.622521-28.947856 0 0 14.473928-26.880152 25.542226-15.203705 7.784297 8.270816 12.162965 12.771113 54.003563 15.811854 19.947262 1.459556 22.014966 6.081482 21.406818 10.946668-0.608148 5.838223-12.649483 12.406224-30.529042 12.406224zM575.308231 611.629885H573.240527c-3.892149 0-8.027557-0.243259-12.162964-0.729778-13.86578-1.459556-25.907115-4.865186-34.056302-9.122224-0.364889-0.12163-0.608148-0.486519-0.608148-0.973037 0-0.608148 0.486519-1.094667 1.216297-1.094667h0.121629c2.310963 0.364889 4.743556 0.729778 7.17615 0.973038 22.501485 2.189334 41.35408-1.459556 42.327117-8.270816 0.729778-5.230075-9.122224-10.581779-23.596152-13.98741-0.729778-0.12163-1.216296-0.851408-1.216296-1.581185 0-0.729778 0.486519-1.337926 1.216296-1.459556 6.081482-1.702815 13.136002-2.797482 20.555411-3.040741 23.231263-0.486519 42.205488 7.784297 42.570376 18.609336 0.243259 11.068298-18.244447 20.190521-41.47571 20.67704z"  horiz-adv-x="1024" />

    
    <glyph glyph-name="yunxunizhuji" unicode="&#59183;" d="M128 599.466667h539.733333c23.466667 0 42.666667 17.066667 42.666667 38.4V727.466667c0 21.333333-19.2 38.4-42.666667 38.4H128C104.533333 768 85.333333 750.933333 85.333333 727.466667v-89.6c0-21.333333 19.2-38.4 42.666667-38.4z m46.933333 128c23.466667 0 40.533333-19.2 40.533334-40.533334 0-23.466667-19.2-40.533333-40.533334-40.533333s-40.533333 19.2-40.533333 40.533333c0 21.333333 19.2 40.533333 40.533333 40.533334zM128 379.733333h539.733333c23.466667 0 42.666667 17.066667 42.666667 38.4v89.6c0 21.333333-19.2 38.4-42.666667 38.4H128c-23.466667 0-42.666667-17.066667-42.666667-38.4v-89.6c0-19.2 19.2-38.4 42.666667-38.4z m46.933333 125.866667c23.466667 0 40.533333-19.2 40.533334-40.533333 0-23.466667-19.2-40.533333-40.533334-40.533334s-40.533333 19.2-40.533333 40.533334c0 23.466667 19.2 40.533333 40.533333 40.533333zM416 273.066667s8.533333 38.4 36.266667 57.6H123.733333s-36.266667 2.133333-36.266666-36.266667v-266.666667s0-36.266667 36.266666-36.266666h192s-42.666667 53.333333-40.533333 132.266666c4.266667 76.8 68.266667 130.133333 140.8 149.333334zM853.333333 202.666667s29.866667 85.333333-81.066666 128c-110.933333 40.533333-168.533333-46.933333-168.533334-46.933334-38.4 36.266667-91.733333 21.333333-91.733333 21.333334-68.266667-19.2-55.466667-85.333333-55.466667-85.333334-34.133333 10.666667-134.4-2.133333-134.4-106.666666s85.333333-123.733333 85.333334-123.733334h443.733333s81.066667 10.666667 81.066667 102.4c2.133333 93.866667-78.933333 110.933333-78.933334 110.933334z"  horiz-adv-x="1024" />

    
    <glyph glyph-name="shebeixinghao" unicode="&#58636;" d="M735.5-63h-447C165.3-63 65 37.3 65 160.5v447C65 730.7 165.3 831 288.5 831h447C858.7 831 959 730.7 959 607.5v-447C959 37.3 858.7-63 735.5-63z m-447 812.7c-78.4 0-142.2-63.8-142.2-142.2v-447c0-78.4 63.8-142.2 142.2-142.2h447c78.4 0 142.2 63.8 142.2 142.2v447c0 78.4-63.8 142.2-142.2 142.2h-447zM685.6 231.5V467.3c0 49.9-40.5 90.5-90.4 90.5H359.6c12.5 35.1 45.6 60.3 84.9 60.3h211c49.9 0 90.4-40.5 90.4-90.5v-211.1c0-39.4-25.3-72.5-60.3-85z m-15.7 220v-211.1c0-50-40.5-90.5-90.4-90.5h-211c-49.9 0-90.4 40.5-90.4 90.5V451.5c0 50 40.5 90.5 90.4 90.5h211c49.9 0 90.4-40.5 90.4-90.5zM338.4 240.4c0-16.7 13.5-30.2 30.1-30.2h211c16.6 0 30.1 13.5 30.1 30.2v181H338.4v-181z m30.1 271.4c-16.6 0-30.1-13.5-30.1-30.1 0-16.7 13.5-30.2 30.1-30.2 16.7 0 30.1 13.5 30.1 30.2 0.1 16.6-13.4 30.1-30.1 30.1z"  horiz-adv-x="1024" />

    
    <glyph glyph-name="operatingsystem" unicode="&#58887;" d="M1015.848 208.18H8.156a7.992 7.992 0 0 0-7.998 7.996 7.994 7.994 0 0 0 7.998 7.998h1007.692a7.992 7.992 0 0 0 7.996-7.998 7.992 7.992 0 0 0-7.996-7.996zM512 128.234c-17.644 0-31.99 14.34-31.99 31.99s14.346 31.99 31.99 31.99c17.652 0 31.992-14.34 31.992-31.99s-14.34-31.99-31.992-31.99z m0 47.984c-8.818 0-15.996-7.184-15.996-15.994s7.178-15.994 15.996-15.994c8.816 0 15.996 7.184 15.996 15.994s-7.18 15.994-15.996 15.994zM376.136-79.732a8.01 8.01 0 0 0-7.818 9.73l31.99 143.956c0.968 4.312 5.294 6.984 9.544 6.078a8.014 8.014 0 0 0 6.078-9.544l-31.99-143.956a8 8 0 0 0-7.804-6.264zM647.864-79.732a8 8 0 0 0-7.808 6.264l-31.988 143.956a8.01 8.01 0 0 0 6.074 9.544c4.296 0.906 8.574-1.766 9.542-6.078l31.992-143.956a8.008 8.008 0 0 0-7.812-9.73zM671.954-79.732H352.05a7.992 7.992 0 0 0-7.998 7.998 7.992 7.992 0 0 0 7.998 7.996h319.904a7.992 7.992 0 0 0 7.996-7.996 7.992 7.992 0 0 0-7.996-7.998zM967.86 256.164H56.14a7.994 7.994 0 0 0-7.998 7.998V792a7.994 7.994 0 0 0 7.998 7.998h911.72c4.422 0 8-3.578 8-7.998v-527.838a7.994 7.994 0 0 0-8-7.998zM64.138 272.16h895.726V784.002H64.138V272.16zM967.86 752.012H56.14a7.994 7.994 0 0 0-7.998 7.998 7.994 7.994 0 0 0 7.998 7.998h911.72c4.422 0 8-3.578 8-7.998a7.994 7.994 0 0 0-8-7.998zM88.606 768.008c-4.412 0-8.076 3.576-8.076 7.998s3.5 7.998 7.92 7.998h0.156c4.42 0 7.998-3.576 7.998-7.998s-3.578-7.998-7.998-7.998zM120.12 752.012a7.994 7.994 0 0 0-7.998 7.998V792a7.994 7.994 0 0 0 7.998 7.998A7.994 7.994 0 0 0 128.118 792v-31.99a7.992 7.992 0 0 0-7.998-7.998zM184.1 752.012a7.994 7.994 0 0 0-7.998 7.998V792c0 4.42 3.578 7.998 7.998 7.998S192.098 796.42 192.098 792v-31.99a7.994 7.994 0 0 0-7.998-7.998zM248.082 752.012a7.994 7.994 0 0 0-7.998 7.998V792c0 4.42 3.578 7.998 7.998 7.998S256.08 796.42 256.08 792v-31.99a7.994 7.994 0 0 0-7.998-7.998zM312.062 752.012a7.994 7.994 0 0 0-7.998 7.998V792c0 4.42 3.578 7.998 7.998 7.998S320.06 796.42 320.06 792v-31.99a7.994 7.994 0 0 0-7.998-7.998zM376.042 752.012a7.994 7.994 0 0 0-7.998 7.998V792a7.994 7.994 0 0 0 7.998 7.998A7.994 7.994 0 0 0 384.04 792v-31.99a7.994 7.994 0 0 0-7.998-7.998zM935.872 752.012c-4.422 0-8 3.578-8 7.998V792a7.994 7.994 0 0 0 8 7.998A7.994 7.994 0 0 0 943.868 792v-31.99a7.992 7.992 0 0 0-7.996-7.998zM903.878 752.012a7.994 7.994 0 0 0-7.996 7.998V792a7.994 7.994 0 0 0 7.996 7.998c4.422 0 8-3.578 8-7.998v-31.99a7.994 7.994 0 0 0-8-7.998zM855.894 752.012a7.992 7.992 0 0 0-7.996 7.998V792c0 4.42 3.574 7.998 7.996 7.998s7.996-3.578 7.996-7.998v-31.99a7.99 7.99 0 0 0-7.996-7.998zM823.906 752.012c-4.422 0-8 3.578-8 7.998V792a7.994 7.994 0 0 0 8 7.998A7.994 7.994 0 0 0 831.902 792v-31.99a7.992 7.992 0 0 0-7.996-7.998zM791.914 752.012a7.992 7.992 0 0 0-7.996 7.998V792c0 4.42 3.574 7.998 7.996 7.998s7.996-3.578 7.996-7.998v-31.99a7.99 7.99 0 0 0-7.996-7.998zM759.926 752.012c-4.422 0-8 3.578-8 7.998V792a7.994 7.994 0 0 0 8 7.998A7.994 7.994 0 0 0 767.922 792v-31.99a7.992 7.992 0 0 0-7.996-7.998zM727.934 752.012a7.992 7.992 0 0 0-7.996 7.998V792c0 4.42 3.574 7.998 7.996 7.998s8-3.578 8-7.998v-31.99a7.994 7.994 0 0 0-8-7.998zM384.04 320.144h-79.976a7.994 7.994 0 0 0-7.998 7.998v79.974a7.994 7.994 0 0 0 7.998 7.998h79.976a7.994 7.994 0 0 0 7.998-7.998v-79.974a7.994 7.994 0 0 0-7.998-7.998z m-71.978 15.996h63.98v63.98h-63.98v-63.98zM608.286 320.144h-80.288a8.004 8.004 0 0 0-7.156 11.574l39.988 79.976c2.718 5.42 11.59 5.42 14.308 0l39.114-78.21a7.954 7.954 0 0 0 2.032-5.342 7.996 7.996 0 0 0-7.998-7.998z m-67.356 15.996h54.11l-27.054 54.092-27.056-54.092zM703.942 320.144h-47.984a7.998 7.998 0 0 0-7.844 6.436l-15.992 79.968a8 8 0 0 0 7.84 9.568h79.976a8.006 8.006 0 0 0 7.84-9.568l-15.996-79.968a7.994 7.994 0 0 0-7.84-6.436z m-41.426 15.996h34.868l12.808 63.98h-60.484l12.808-63.98zM456.016 320.144c-12.816 0-24.86 4.998-33.926 14.058-9.068 9.058-14.058 21.118-14.058 33.926 0 12.816 4.99 24.868 14.058 33.928 18.134 18.134 49.718 18.134 67.854 0 9.068-9.06 14.058-21.112 14.058-33.928a47.66 47.66 0 0 0-14.058-33.926c-9.068-9.06-21.11-14.058-33.928-14.058z m0 79.976c-8.542 0-16.572-3.328-22.618-9.372s-9.372-14.074-9.372-22.62a31.78 31.78 0 0 1 9.372-22.618c12.09-12.09 33.146-12.09 45.236 0a31.774 31.774 0 0 1 9.372 22.618c0 8.544-3.326 16.574-9.372 22.62s-14.072 9.372-22.618 9.372zM767.922 288.154H256.08a8 8 0 0 0-7.052 4.216 8.02 8.02 0 0 0 0.398 8.216l31.99 47.986a8.02 8.02 0 0 0 6.654 3.56h15.994a7.994 7.994 0 0 0 7.998-7.998v-7.996h63.98v7.996a7.992 7.992 0 0 0 7.998 7.998h40.206c2.5 0 4.858-1.172 6.374-3.154 1.234-1.656 1.93-2.624 2.782-3.468 12.09-12.09 33.146-12.09 45.236 0 0.852 0.844 1.546 1.812 2.256 2.75 1.506 2.014 4.382 3.874 6.896 3.874h40.208a7.992 7.992 0 0 0 7.996-7.998v-7.996h63.98v7.996a7.994 7.994 0 0 0 8 7.998h44.782a7.994 7.994 0 0 0 7.84-6.436l1.922-9.558h34.868l1.918 9.558a7.998 7.998 0 0 0 7.844 6.436h28.79c2.668 0 5.168-1.344 6.652-3.56l31.988-47.986a8.072 8.072 0 0 0 0.406-8.216 8.036 8.036 0 0 0-7.062-4.218z m-496.902 15.994h481.968l-21.336 31.992h-17.964l-1.906-9.56a7.994 7.994 0 0 0-7.84-6.436h-47.984a7.998 7.998 0 0 0-7.844 6.436l-1.902 9.56h-30.242v-7.998a7.994 7.994 0 0 0-7.996-7.998h-79.976c-4.422 0-8 3.578-8 7.998v7.998h-28.294c-0.586-0.704-1.148-1.328-1.758-1.938-18.134-18.136-49.718-18.136-67.854 0a31.126 31.126 0 0 0-1.758 1.938h-28.296v-7.998a7.994 7.994 0 0 0-7.998-7.998h-79.976a7.994 7.994 0 0 0-7.998 7.998v7.998h-3.718l-21.328-31.992zM344.052 528.08h-143.956a7.994 7.994 0 0 0-7.998 7.998v95.97a7.994 7.994 0 0 0 7.998 7.998h143.956a7.994 7.994 0 0 0 7.998-7.998v-95.97a7.994 7.994 0 0 0-7.998-7.998z m-135.96 15.996h127.96v79.974h-127.96v-79.974zM280.072 624.05h-79.976a8 8 0 0 0-7.152 11.574l15.994 31.99a8.002 8.002 0 0 0 7.154 4.42h63.98a7.994 7.994 0 0 0 7.998-7.998v-31.99a7.994 7.994 0 0 0-7.998-7.996z m-67.034 15.996h59.036v15.994h-51.04l-7.996-15.994zM328.056 496.09h-111.966a7.994 7.994 0 0 0-7.998 7.998 7.994 7.994 0 0 0 7.998 7.998h111.966a7.994 7.994 0 0 0 7.998-7.998 7.994 7.994 0 0 0-7.998-7.998zM583.976 528.08h-143.954a7.994 7.994 0 0 0-7.998 7.998v95.97a7.994 7.994 0 0 0 7.998 7.998h143.954c4.422 0 8-3.578 8-7.998v-95.97a7.994 7.994 0 0 0-8-7.998z m-135.956 15.996h127.96v79.974h-127.96v-79.974zM519.996 624.05h-79.974a8 8 0 0 0-7.154 11.574l15.996 31.99a8 8 0 0 0 7.154 4.42h63.98c4.422 0 8-3.578 8-7.998v-31.99a7.998 7.998 0 0 0-8.002-7.996z m-67.032 15.996H512v15.994h-51.04l-7.996-15.994zM567.984 496.09h-111.968a7.994 7.994 0 0 0-7.998 7.998 7.994 7.994 0 0 0 7.998 7.998h111.968a7.994 7.994 0 0 0 7.996-7.998 7.994 7.994 0 0 0-7.996-7.998zM823.906 528.08h-143.958a7.992 7.992 0 0 0-7.996 7.998v95.97a7.992 7.992 0 0 0 7.996 7.998h143.958a7.994 7.994 0 0 0 7.996-7.998v-95.97a7.994 7.994 0 0 0-7.996-7.998z m-135.96 15.996h127.96v79.974h-127.96v-79.974zM759.926 624.05h-79.976a7.994 7.994 0 0 0-7.156 11.574l15.996 31.99a8.002 8.002 0 0 0 7.156 4.42h63.98a7.994 7.994 0 0 0 7.996-7.998v-31.99a7.994 7.994 0 0 0-7.996-7.996z m-67.044 15.996h59.042v15.994h-51.046l-7.996-15.994zM807.91 496.09h-111.964c-4.422 0-8 3.578-8 7.998a7.994 7.994 0 0 0 8 7.998h111.964a7.992 7.992 0 0 0 7.996-7.998 7.992 7.992 0 0 0-7.996-7.998zM967.86 95.962H56.14c-30.866 0-55.982 25.118-55.982 55.982V791.75c0 30.866 25.118 55.982 55.982 55.982h911.72c30.868 0 55.984-25.118 55.984-55.982v-639.804c0-30.866-25.118-55.984-55.984-55.984zM56.14 831.738c-22.048 0-39.988-17.94-39.988-39.988v-639.804c0-22.054 17.94-39.986 39.988-39.986h911.72c22.058 0 39.988 17.932 39.988 39.986V791.75c0 22.048-17.93 39.988-39.988 39.988H56.14zM967.86 64.222H56.14c-31.388 0-55.982 24.586-55.982 55.982v31.99a7.994 7.994 0 0 0 7.998 7.998 7.994 7.994 0 0 0 7.998-7.998v-31.99c0-22.43 17.566-39.986 39.988-39.986h911.72c22.434 0 39.988 17.556 39.988 39.986v31.74a7.994 7.994 0 0 0 8 7.998 7.992 7.992 0 0 0 7.996-7.998v-31.74c-0.002-31.396-24.588-55.982-55.986-55.982z"  horiz-adv-x="1024" />

    
    <glyph glyph-name="cpu_icon" unicode="&#59051;" d="M351.997 197.337h320.006c0.006 0 0.012 0 0.019 0 14.718 0 26.649 11.932 26.649 26.649 0 0.007 0 0.013 0 0.021v319.996c0 0.006 0 0.012 0 0.019 0 14.718-11.932 26.649-26.649 26.649-0.007 0-0.013 0-0.021 0h-320.005c-0.006 0-0.012 0-0.019 0-14.718 0-26.649-11.932-26.649-26.649 0-0.007 0-0.013 0-0.021v-320.005c0-0.003 0-0.007 0-0.009 0-14.718 11.932-26.649 26.649-26.649 0.007 0 0.013 0 0.021 0zM378.666 517.334h266.669v-266.669h-266.669zM965.331 424.003c14.729 0 26.669 11.94 26.669 26.669s-11.94 26.669-26.669 26.669h-93.331v79.997h93.331c14.729 0 26.669 11.94 26.669 26.669s-11.94 26.669-26.669 26.669h-93.331v106.656c0 0.006 0 0.012 0 0.019 0 14.718-11.932 26.649-26.649 26.649-0.007 0-0.013 0-0.021 0h-106.665v93.331c0 0 0 0 0 0 0 14.729-11.94 26.669-26.669 26.669-14.729 0-26.669-11.94-26.669-26.669 0 0 0 0 0 0v-93.331h-79.997v93.331c0 0 0 0 0 0 0 14.729-11.94 26.669-26.669 26.669-14.729 0-26.669-11.94-26.669-26.669 0 0 0 0 0 0v-93.331h-79.997v93.331c0 14.729-11.94 26.669-26.669 26.669s-26.669-11.94-26.669-26.669v-93.331h-79.997v93.331c0 14.729-11.94 26.669-26.669 26.669s-26.669-11.94-26.669-26.669v-93.331h-106.656c-0.006 0-0.012 0-0.019 0-14.718 0-26.649-11.932-26.649-26.649 0-0.007 0-0.013 0-0.021v-106.665h-93.331c-14.729 0-26.669-11.94-26.669-26.669s11.94-26.669 26.669-26.669h93.331v-79.997h-93.331c-14.729 0-26.669-11.94-26.669-26.669s11.94-26.669 26.669-26.669h93.331v-79.997h-93.331c0 0 0 0 0 0-14.729 0-26.669-11.94-26.669-26.669 0-14.729 11.94-26.669 26.669-26.669 0 0 0 0 0 0h93.331v-79.997h-93.331c0 0 0 0 0 0-14.729 0-26.669-11.94-26.669-26.669 0-14.729 11.94-26.669 26.669-26.669 0 0 0 0 0 0h93.331v-106.656c0-0.006 0-0.012 0-0.019 0-14.718 11.932-26.649 26.649-26.649 0.007 0 0.013 0 0.021 0h106.665v-93.331c0-14.729 11.94-26.669 26.669-26.669s26.669 11.94 26.669 26.669v93.331h79.997v-93.331c0-14.729 11.94-26.669 26.669-26.669s26.669 11.94 26.669 26.669v93.331h79.997v-93.331c0 0 0 0 0 0 0-14.729 11.94-26.669 26.669-26.669 14.729 0 26.669 11.94 26.669 26.669 0 0 0 0 0 0v93.331h79.997v-93.331c0 0 0 0 0 0 0-14.729 11.94-26.669 26.669-26.669 14.729 0 26.669 11.94 26.669 26.669 0 0 0 0 0 0v93.331h106.656c0.006 0 0.012 0 0.019 0 14.718 0 26.649 11.932 26.649 26.649 0 0.007 0 0.013 0 0.021v106.665h93.331c0 0 0 0 0 0 14.729 0 26.669 11.94 26.669 26.669 0 14.729-11.94 26.669-26.669 26.669 0 0 0 0 0 0h-93.331v79.997h93.331c0 0 0 0 0 0 14.729 0 26.669 11.94 26.669 26.669 0 14.729-11.94 26.669-26.669 26.669 0 0 0 0 0 0h-93.331v79.997zM818.663 77.337h-613.325v613.325h613.325z"  horiz-adv-x="1024" />

    
    <glyph glyph-name="IDCjifang" unicode="&#58919;" d="M605.09 709.818H418.91v-651.636h186.18V709.818z m46.546 0v-651.636h162.91a23.273 23.273 0 0 1 23.272 23.273v605.09a23.273 23.273 0 0 1-23.273 23.273H651.636z m-279.272 0h-162.91a23.273 23.273 0 0 1-23.272-23.273v-605.09a23.273 23.273 0 0 1 23.273-23.273h162.909V709.818z m465.454 46.546a46.545 46.545 0 0 0 46.546-46.546v-651.636a46.545 46.545 0 0 0-46.546-46.546H186.182a46.545 46.545 0 0 0-46.546 46.546V709.818a46.545 46.545 0 0 0 46.546 46.546h651.636z m-558.545-162.91a23.273 23.273 0 1 0 0 46.546 23.273 23.273 0 0 0 0-46.545z m0-69.818a23.273 23.273 0 1 0 0 46.546 23.273 23.273 0 0 0 0-46.546z m0-69.818a23.273 23.273 0 1 0 0 46.546 23.273 23.273 0 0 0 0-46.546zM256 360.728h46.545a23.273 23.273 0 0 0 0-46.546H256a23.273 23.273 0 0 0 0 46.545z m0-186.183h46.545a23.273 23.273 0 0 0 0-46.545H256a23.273 23.273 0 0 0 0 46.545z m0 93.091h46.545a23.273 23.273 0 0 0 0-46.545H256a23.273 23.273 0 0 0 0 46.545z m232.727 93.091h46.546a23.273 23.273 0 0 0 0-46.545h-46.546a23.273 23.273 0 0 0 0 46.545z m0-186.182h46.546a23.273 23.273 0 0 0 0-46.545h-46.546a23.273 23.273 0 0 0 0 46.545z m0 93.091h46.546a23.273 23.273 0 0 0 0-46.545h-46.546a23.273 23.273 0 0 0 0 46.545z m232.728 93.091H768a23.273 23.273 0 0 0 0-46.545h-46.545a23.273 23.273 0 0 0 0 46.545z m0-186.182H768A23.273 23.273 0 0 0 768 128h-46.545a23.273 23.273 0 0 0 0 46.545z m0 93.091H768a23.273 23.273 0 0 0 0-46.545h-46.545a23.273 23.273 0 0 0 0 46.545zM512 593.455A23.273 23.273 0 1 0 512 640a23.273 23.273 0 0 0 0-46.545z m0-69.819a23.273 23.273 0 1 0 0 46.546 23.273 23.273 0 0 0 0-46.546z m0-69.818a23.273 23.273 0 1 0 0 46.546 23.273 23.273 0 0 0 0-46.546z m232.727 139.637a23.273 23.273 0 1 0 0 46.545 23.273 23.273 0 0 0 0-46.545z m0-69.819a23.273 23.273 0 1 0 0 46.546 23.273 23.273 0 0 0 0-46.546z m0-69.818a23.273 23.273 0 1 0 0 46.546 23.273 23.273 0 0 0 0-46.546z"  horiz-adv-x="1024" />

    
    <glyph glyph-name="erji-loudongsaomiaoguanli" unicode="&#60082;" d="M524.8 409.6c19.2 0 32 12.8 32 32V627.2c102.4-12.8 192-76.8 236.8-172.8 6.4-19.2 25.6-25.6 44.8-12.8 19.2 6.4 25.6 25.6 12.8 44.8l-19.2 38.4c44.8 38.4 76.8 76.8 102.4 128 6.4 12.8 0 32-12.8 44.8-12.8 6.4-32 0-44.8-12.8-25.6-44.8-51.2-83.2-83.2-108.8-25.6 25.6-51.2 51.2-76.8 64 0 6.4 6.4 6.4 6.4 12.8 0 12.8 6.4 25.6 6.4 38.4C729.6 800 640 889.6 531.2 889.6S320 793.6 320 684.8c0-12.8 0-25.6 6.4-38.4 0-6.4 0-6.4 6.4-6.4-32-19.2-57.6-38.4-83.2-64-32 25.6-57.6 64-76.8 102.4-12.8 19.2-32 25.6-44.8 12.8-19.2-6.4-25.6-25.6-12.8-38.4 25.6-51.2 57.6-96 102.4-128-32-44.8-51.2-96-57.6-147.2H44.8c-19.2 0-32-12.8-32-32s12.8-32 32-32h121.6c6.4-44.8 12.8-89.6 32-128-51.2-38.4-96-89.6-121.6-147.2-6.4-12.8 0-32 12.8-44.8 6.4 0 6.4-6.4 12.8-6.4 12.8 0 25.6 6.4 32 19.2 19.2 44.8 57.6 89.6 96 121.6 44.8-64 115.2-115.2 198.4-134.4h6.4c12.8 0 25.6 6.4 32 25.6 6.4 19.2-6.4 32-25.6 38.4-128 32-217.6 153.6-217.6 288 0 153.6 115.2 275.2 262.4 294.4v-185.6c6.4-25.6 19.2-44.8 38.4-44.8zM384 684.8c0 76.8 64 134.4 140.8 134.4 76.8 0 134.4-57.6 134.4-134.4v-19.2c-44.8 19.2-89.6 32-140.8 32-44.8 0-89.6-6.4-134.4-25.6 6.4 6.4 0 6.4 0 12.8zM1004.8-64l-89.6 89.6c70.4 96 64 224-19.2 313.6-96 96-243.2 96-339.2 0s-96-243.2 0-339.2c44.8-44.8 108.8-70.4 166.4-70.4 51.2 0 102.4 19.2 140.8 51.2l89.6-89.6c6.4-6.4 12.8-6.4 25.6-6.4s19.2 0 25.6 6.4c12.8 12.8 12.8 32 0 44.8z m-396.8 108.8c-70.4 70.4-70.4 179.2 0 249.6 32 32 76.8 51.2 121.6 51.2s89.6-19.2 121.6-51.2c70.4-70.4 70.4-179.2 0-249.6s-179.2-70.4-243.2 0z"  horiz-adv-x="1024" />

    
    <glyph glyph-name="duankoutance" unicode="&#58964;" d="M510 387.6m-210.8 0a210.8 210.8 0 1 1 421.6 0 210.8 210.8 0 1 1-421.6 0ZM510 532.6c-80 0-145-65.1-145-145s65.1-145 145-145 145 65.1 145 145-65 145-145 145zM510 552.6c-91 0-165-74-165-165s74-165 165-165 165 74 165 165-74 165-165 165z m0-310.1c-80 0-145 65.1-145 145s65.1 145 145 145 145-65.1 145-145-65-145-145-145zM795.4 407.6H760c-4.7 59.5-30 114.7-72.7 157.4s-98.1 68.1-157.7 72.7v36.6c0 11-9 20-20 20s-20-9-20-20v-36.7c-59.3-4.7-114.5-30.1-157-72.6-42.6-42.6-68-97.9-72.7-157.4H226c-11 0-20-9-20-20s9-20 20-20h34c4.7-59.5 30-114.7 72.7-157.4 42.5-42.5 97.7-67.9 157-72.6v-35.5c0-11 9-20 20-20s20 9 20 20v35.4c59.6 4.6 115 30 157.7 72.7 42.6 42.6 68 97.9 72.7 157.4h35.4c11 0 20 9 20 20s-9 20-20.1 20zM529.7 177.7v51.9c0 11-9 20-20 20s-20-9-20-20v-51.8c-100.1 9.6-180 89.6-189.5 189.8h52.6c11 0 20 9 20 20s-9 20-20 20h-52.6c9.5 100.2 89.4 180.2 189.5 189.8v-50.3c0-11 9-20 20-20s20 9 20 20v50.3c100.5-9.3 180.7-89.5 190.2-189.9h-49.5c-11 0-20-9-20-20s9-20 20-20h49.5c-9.5-100.4-89.8-180.5-190.2-189.8zM880.4 738c0 11-9 20-20 20H510c-50 0-98.5-9.8-144.2-29.1-44.1-18.7-83.7-45.4-117.7-79.4-34-34-60.7-73.6-79.4-117.7-19.3-45.7-29.1-94.2-29.1-144.2 0-11 9-20 20-20s20 9 20 20C179.6 569.8 327.8 718 510 718h281.3v-54.5c0-8.9 10.7-13.3 17-7l67.1 67.1c1.6 1.6 2.5 3.4 2.8 5.3 1.4 2.7 2.2 5.8 2.2 9.1zM860.4 407.6c-11 0-20-9-20-20 0-182.2-148.2-330.4-330.4-330.4H230.3V113c0 8.9-10.7 13.3-17 7l-67.1-67.1c-1-1-1.8-2.2-2.3-3.4-2.7-3.4-4.3-7.7-4.3-12.4 0-11 9-20 20-20H510c50 0 98.5 9.8 144.2 29.1 44.1 18.7 83.7 45.4 117.7 79.4 34 34 60.7 73.6 79.4 117.7 19.3 45.7 29.1 94.2 29.1 144.2 0 11.1-8.9 20.1-20 20.1z"  horiz-adv-x="1024" />

    
    <glyph glyph-name="zhujijilu" unicode="&#58970;" d="M686.8 660.1a28.7 27 90 1 1 54 0 28.7 27 90 1 1-54 0ZM686.8 434.7a28.7 27 90 1 1 54 0 28.7 27 90 1 1-54 0ZM774.3 715.7H180.2c-16.5 0-30-13.5-30-30v-51.3c0-16.5 13.5-30 30-30h594.1c16.5 0 30 13.5 30 30v51.3c0 16.6-13.5 30-30 30z m-327.8-65.6H207.1c-5.5 0-10 4.5-10 10s4.5 10 10 10h239.4c5.5 0 10-4.5 10-10s-4.5-10-10-10z m267.3-18.8c-14.9 0-27 12.9-27 28.7s12.1 28.7 27 28.7 27-12.9 27-28.7-12.1-28.7-27-28.7zM804.3 460.4c0 16.5-13.5 30-30 30H180.2c-16.5 0-30-13.5-30-30V409c0-16.5 13.5-30 30-30h394.7l32.7 20c5.9 3.6 12.7 5.6 19.7 5.7h0.7c6.4 0 12.9-1.6 18.6-4.5 6.1-3.1 11.3-7.7 15.1-13.3l5.4-7.9h48.8l4.3 8.4c2.4 4.7 5.7 8.8 9.9 12.1 3.9 3.2 8.4 5.5 13.3 6.9 3.6 1.1 7.4 1.6 11.1 1.6 6.4 0 12.8-1.6 18.5-4.5l25-12.8c3.9 5.1 6.2 11.4 6.2 18.3v51.4zM713.8 406c-14.9 0-27 12.9-27 28.7s12.1 28.7 27 28.7 27-12.9 27-28.7-12.1-28.7-27-28.7zM774.3 755.7H180.2c-38.6 0-70-31.4-70-70v-51.3c0-38.6 31.4-70 70-70h594.1c38.6 0 70 31.4 70 70v51.3c0 38.6-31.4 70-70 70z m30-121.3c0-16.5-13.5-30-30-30H180.2c-16.5 0-30 13.5-30 30v51.3c0 16.5 13.5 30 30 30h594.1c16.5 0 30-13.5 30-30v-51.3zM446.5 670.1H207.1c-5.5 0-10-4.5-10-10s4.5-10 10-10h239.4c5.5 0 10 4.5 10 10s-4.5 10-10 10zM504.5 164.9c-4 5.8-6.4 12.4-6.9 19.4l-3.5 47.3c-0.8 10.4 2.6 20.3 9.5 27.9 1.9 2.1 3.9 3.9 6.1 5.5H180.2c-16.5 0-30-13.5-30-30v-51.3c0-16.5 13.5-30 30-30h336.1c-4.7 2.9-8.7 6.7-11.8 11.2zM569.8 133.7c-3.1 4.6-5.9 9.4-8.5 14.3l-22.4-0.6h-1c-6.4 0-12.8 1.5-18.5 4.5-1.1 0.5-2.1 1.1-3.1 1.8H180.2c-16.5 0-30 13.5-30 30V235c0 16.5 13.5 30 30 30h329.5c1.9 1.4 4 2.6 6.2 3.6 4.8 2.2 10 3.4 15.4 3.5l21.3 0.6c0.4 1.1 0.8 2.1 1.2 3.2 1.7 4.2 3.5 8.4 5.6 12.3 2.5 4.9 5.4 9.8 8.6 14.6l-1.5 2.3H180.2c-38.6 0-70-31.4-70-70v-51.3c0-38.6 31.4-70 70-70h399.7l2 3.9c-4.4 5-8.4 10.4-12.1 16zM769.9 234.4c-3.2 9-8 17.2-14.4 24.4-2 2.2-4 4.2-6.2 6.2-4.8 4.2-10.1 7.9-15.9 10.9-8.4 4.3-17.4 7-26.7 8-9.6 1-19.1 0.2-28.3-2.5-4.7-1.4-9.1-3.2-13.3-5.5-3.9-2.1-7.7-4.6-11.1-7.5-1.3-1.1-2.5-2.2-3.7-3.4-5.1-5-9.3-10.7-12.6-17-4-7.9-6.4-16.3-7-25.2-0.7-9.2 0.6-18.4 3.7-27.4 3.2-9 8-17.2 14.4-24.4 6.2-7 13.7-12.7 22.1-17 0.2-0.1 0.4-0.2 0.7-0.3 8.3-4.1 17-6.7 26.1-7.7 9.6-1 19.1-0.2 28.3 2.5 4.5 1.3 8.7 3 12.7 5.1 4.2 2.2 8.1 4.8 11.7 7.8 6.8 5.7 12.3 12.5 16.3 20.4 4 7.9 6.4 16.3 7 25.2 0.6 9.2-0.6 18.4-3.8 27.4zM876.5 241.6c-0.1 2-1.6 3.9-3.6 5-1 0.5-2.1 0.8-3.2 0.8l-26.4-0.7-18.4-0.5-0.7 1.7-3.8 8.7c-1.6 3.8-3.4 7.4-5.4 11-5.8 10.4-13 20-21.5 28.6l-7.8 7.9-0.8 0.8L805 344c0.4 0.7 0.5 1.5 0.4 2.3-0.2 1.8-1.6 3.7-3.6 4.8l-44 22.6c-1 0.5-2.1 0.8-3.2 0.8-2 0-3.7-0.9-4.4-2.3l-17-33.1-3.2-6.1-12 1.9c-6.9 1.1-13.9 1.6-20.8 1.6-9.1 0-18.3-1-27.1-2.9l-11.1-2.4-5.3 7.8-19.8 29c-0.7 1-1.6 1.8-2.6 2.3-1 0.5-2.2 0.8-3.3 0.8-1.1 0-2.1-0.3-2.9-0.8l-40.5-24.8c-1-0.6-1.6-1.4-1.8-2.5-0.3-1.3 0-2.6 0.9-3.9l0.2-0.2 23.2-34 2.3-3.4-7.7-9.7c-4.1-5.2-7.7-10.6-10.8-16.1-0.6-1-1.1-2-1.6-3-1.3-2.5-2.5-5.2-3.6-7.9-1.8-4.3-3.3-8.7-4.6-13.3l-3.3-11.9-45.5-1.2c-1.5 0-2.8-0.6-3.7-1.5-0.7-0.8-1-1.8-1-2.9l3.5-47.3c0.1-2 1.6-3.9 3.6-5 1-0.5 2.1-0.8 3.2-0.8l44.7 1.2 4.5-10.4c2.7-6.3 6-12.3 9.7-18.1 4.6-7.1 9.9-13.8 15.8-20 0.5-0.5 1-1 1.4-1.5l8.6-8.6-5.1-9.9-15-29.3c-0.7-1.4-0.4-2.8-0.1-3.6 0.6-1.5 1.7-2.7 3.3-3.5l44-22.6c1-0.5 2.1-0.8 3.2-0.8 2 0 3.7 0.9 4.4 2.3l20.1 39.2 12-1.9c6.9-1.1 13.9-1.6 20.8-1.6 9.1 0 18.3 1 27.1 2.9l11.1 2.4 25.1-36.8c0.7-1 1.6-1.8 2.6-2.3 1-0.5 2.2-0.8 3.3-0.8 1.1 0 2.1 0.3 2.9 0.8l40.5 24.8c1 0.6 1.6 1.4 1.8 2.5 0.3 1.6-0.3 3-0.9 3.9l-20.9 30.7-4.7 7 7.2 9 0.5 0.6c4.9 6.1 9 12.5 12.4 19.1 2.3 4.4 4.3 9.2 6 14.1 0.8 2.3 1.6 4.7 2.2 7.1l3.4 11.9 14.4 0.4 31.1 0.8c1.5 0 2.8 0.6 3.7 1.5 0.7 0.8 1 1.8 1 2.9l-3.5 47.3zM661.3 135.3c-9.4 4.8-17.8 11-25 18.4-1.1 1.1-2.1 2.2-3.2 3.4-8.3 9.3-14.5 19.9-18.6 31.5-4.1 11.7-5.7 23.7-4.9 35.8 0.8 11.7 3.9 22.9 9.3 33.3 1.3 2.6 2.7 5 4.3 7.4 2.5 3.8 5.3 7.5 8.3 10.9 2.8 3.1 5.8 6 9 8.6 9.3 7.7 20 13.4 31.9 16.9 6.5 1.9 13.1 3.1 19.8 3.6 4.4 0.3 8.8 0.3 13.3 0l3.3-0.3c11.9-1.3 23.4-4.7 34.1-10.2 9.5-4.9 18-11.1 25.3-18.7 1-1 1.9-2 2.9-3.1 2.3-2.6 4.4-5.2 6.4-8 5.2-7.2 9.3-15.1 12.2-23.5 4.1-11.7 5.7-23.7 4.9-35.8-0.8-11.7-3.9-22.9-9.3-33.3-3.5-6.8-7.8-13-12.9-18.6-2.7-3-5.6-5.7-8.7-8.3-5.6-4.6-11.7-8.5-18.2-11.7-4.4-2.1-8.9-3.9-13.7-5.3-11.8-3.5-24.1-4.6-36.4-3.3-10.7 1.1-21 4-30.7 8.6-1.1 0.6-2.2 1.1-3.4 1.7zM913.5 196.8l-3.5 47.3c-0.5 6.9-2.9 13.6-6.9 19.4-3.8 5.5-9 10-14.9 13-5.7 2.9-12.1 4.5-18.5 4.5h-1l-22.4-0.6c-5.7 10.8-12.6 21-20.6 30.4l9.2 17.9c2.4 4.7 3.8 9.8 4.1 15.1 0.3 5-0.5 10-2.2 14.8-1.3 3.6-3.1 7-5.3 10.1 8.1 11.4 12.8 25.3 12.8 40.3v51.3c0 38.6-31.4 70-70 70H180.2c-38.6 0-70-31.4-70-70V409c0-38.6 31.4-70 70-70h369.1c0.1-1.4 0.3-2.7 0.6-4.1 1-5.2 3.1-10.1 6.1-14.5l10.5-15.4 1.5-2.3c-3.2-4.8-6.1-9.6-8.6-14.6-2-3.9-3.9-8.1-5.6-12.3-0.4-1.1-0.8-2.1-1.2-3.2l-21.3-0.6c-5.4-0.1-10.6-1.3-15.4-3.5-2.2-1-4.3-2.2-6.2-3.6-2.2-1.6-4.3-3.4-6.1-5.5-6.9-7.7-10.3-17.6-9.5-27.9l3.5-47.3c0.5-6.9 2.9-13.6 6.9-19.4 3.1-4.5 7.2-8.3 11.8-11.3 1-0.6 2-1.2 3.1-1.8 5.7-2.9 12.1-4.5 18.5-4.5h1l22.4 0.6c2.6-4.9 5.4-9.7 8.5-14.3 3.7-5.6 7.7-10.9 12.1-16.1l-2-3.9-7.2-14c-2.4-4.7-3.8-9.8-4.1-15.1-0.3-5 0.5-10 2.2-14.8 3.4-9.7 10.4-17.6 19.7-22.4l44-22.6c5.8-2.9 12.2-4.5 18.5-4.5 3.8 0 7.5 0.5 11.1 1.6 4.9 1.4 9.4 3.8 13.3 6.9 4.1 3.3 7.5 7.4 9.9 12.1l9.2 17.9c4.6-0.4 9.2-0.6 13.8-0.6 7.7 0 15.3 0.5 22.9 1.6l12.6-18.5c3.8-5.6 9-10.2 15.1-13.3 5.7-2.9 12.2-4.5 18.6-4.5h0.7c7 0.1 13.8 2.1 19.7 5.7l40.5 24.8c8.9 5.4 14.9 14 17.1 24.1 1.1 5 1.1 10.2 0.1 15.3-1 5.2-3.1 10.1-6.1 14.5l-12 17.6c3.2 4.8 6.1 9.6 8.6 14.6 2.5 4.9 4.8 10.1 6.8 15.5l21.3 0.6c5.4 0.1 10.6 1.3 15.4 3.5 4.7 2.2 8.9 5.2 12.3 9 7 8 10.4 17.9 9.6 28.3zM150.2 409v51.3c0 16.5 13.5 30 30 30h594.1c16.5 0 30-13.5 30-30V409c0-6.9-2.3-13.2-6.2-18.3l-25 12.8c-5.8 2.9-12.2 4.5-18.5 4.5-3.8 0-7.5-0.5-11.1-1.6-4.9-1.4-9.4-3.8-13.3-6.9-4.1-3.3-7.5-7.4-9.9-12.1L716 379h-48.8l-5.4 7.9c-3.8 5.6-9 10.2-15.1 13.3-5.8 2.9-12.2 4.5-18.6 4.5h-0.7c-7-0.1-13.8-2.1-19.7-5.7L575 379H180.2c-16.5 0-30 13.5-30 30z m728.9-217.7c-0.9-1-2.1-1.5-3.7-1.5l-31.1-0.8-14.4-0.4-3.4-11.9c-0.7-2.4-1.4-4.8-2.2-7.1-1.7-4.9-3.7-9.7-6-14.1-3.3-6.5-7.5-12.9-12.4-19.1l-0.5-0.6-7.2-9 4.7-7 20.9-30.7c0.6-0.9 1.2-2.3 0.9-3.9-0.2-1-0.9-1.9-1.8-2.5L782.4 58c-0.8-0.5-1.8-0.8-2.9-0.8-1.1 0-2.2 0.3-3.3 0.8-1.1 0.5-2 1.3-2.6 2.3l-25.1 36.8-11.1-2.4c-8.9-1.9-18-2.9-27.1-2.9-6.9 0-13.9 0.6-20.8 1.6l-12 1.9-20.1-39.2c-0.7-1.4-2.4-2.3-4.4-2.3-1.1 0-2.2 0.3-3.2 0.8l-44 22.6c-1.6 0.8-2.7 2.1-3.3 3.5-0.3 0.7-0.6 2.2 0.1 3.6l15 29.3 5.1 9.9-8.6 8.6c-0.5 0.5-1 1-1.4 1.5-6 6.2-11.3 12.9-15.8 20-3.7 5.8-7 11.8-9.7 18.1l-4.5 10.4-44.7-1.2c-1.1 0-2.2 0.3-3.2 0.8-2.1 1.1-3.5 3-3.6 5l-3.5 47.3c-0.1 1.1 0.2 2.1 1 2.9 0.9 1 2.1 1.5 3.7 1.5l45.5 1.2 3.3 11.9c1.3 4.6 2.8 9.1 4.6 13.3 1.1 2.7 2.3 5.3 3.6 7.9 0.5 1 1.1 2 1.6 3 3 5.5 6.7 10.9 10.8 16.1l7.7 9.7-2.3 3.4-23.2 34-0.2 0.2c-0.9 1.3-1.2 2.6-0.9 3.9 0.2 1 0.9 1.9 1.8 2.5l40.5 24.8c0.8 0.5 1.8 0.8 2.9 0.8 1.1 0 2.2-0.3 3.3-0.8 1.1-0.5 2-1.3 2.6-2.3l19.8-29 5.3-7.8 11.1 2.4c8.9 1.9 18 2.9 27.1 2.9 6.9 0 13.9-0.6 20.8-1.6l12-1.9 3.1 6.1 17 33.1c0.7 1.4 2.4 2.3 4.4 2.3 1.1 0 2.2-0.3 3.2-0.8l44-22.6c2-1 3.4-2.9 3.6-4.8 0.1-0.8 0-1.6-0.4-2.3l-20.1-39.2 0.8-0.8 7.8-7.9c8.6-8.7 15.8-18.2 21.5-28.6 2-3.6 3.8-7.2 5.4-11l3.8-8.7 0.7-1.7 18.4 0.5 26.4 0.7c1.1 0 2.2-0.3 3.2-0.8 2.1-1.1 3.5-3 3.6-5l3.5-47.3c0.1-1.1-0.2-2.1-0.9-2.9zM692.2 305h13.3c-4.5 0.3-8.9 0.3-13.3 0zM789.7 241.3c-2.9 8.4-7.1 16.3-12.2 23.5-2 2.8-4.1 5.4-6.4 8-0.9 1-1.9 2.1-2.9 3.1-7.3 7.5-15.8 13.8-25.3 18.7-10.7 5.5-22.2 8.9-34.1 10.2l-3.3 0.3h-13.3c-6.7-0.5-13.3-1.6-19.8-3.6-11.9-3.5-22.6-9.2-31.9-16.9-3.2-2.7-6.2-5.6-9-8.6-3.1-3.4-5.8-7-8.3-10.9-1.5-2.4-3-4.9-4.3-7.4-5.3-10.4-8.4-21.6-9.3-33.3-0.9-12.1 0.8-24.1 4.9-35.8 4.1-11.6 10.3-22.2 18.6-31.5 1-1.2 2.1-2.3 3.2-3.4 7.3-7.4 15.7-13.6 25-18.4 1.1-0.6 2.2-1.1 3.4-1.6 9.8-4.5 20.1-7.4 30.7-8.6 12.3-1.3 24.6-0.2 36.4 3.3 4.8 1.4 9.3 3.2 13.7 5.3 6.5 3.1 12.6 7 18.2 11.7 3.1 2.6 6 5.4 8.7 8.3 5.1 5.6 9.4 11.8 12.9 18.6 5.3 10.4 8.4 21.6 9.3 33.3 0.9 12-0.8 24-4.9 35.7z m-16-34.3c-0.6-8.8-3-17.3-7-25.2-4-7.9-9.5-14.7-16.3-20.4-3.6-3-7.5-5.6-11.7-7.8-4-2.1-8.2-3.8-12.7-5.1-9.2-2.7-18.7-3.6-28.3-2.5-9.1 1-17.8 3.6-26.1 7.7-0.2 0.1-0.4 0.2-0.7 0.3-8.4 4.3-15.9 10.1-22.1 17-6.4 7.2-11.3 15.4-14.4 24.4-3.1 9-4.4 18.2-3.7 27.4 0.6 8.8 3 17.3 7 25.2 3.3 6.4 7.5 12.1 12.6 17 1.2 1.2 2.4 2.3 3.7 3.4 3.4 2.9 7.2 5.4 11.1 7.5 4.2 2.2 8.6 4.1 13.3 5.5 9.2 2.7 18.7 3.6 28.3 2.5 9.3-1 18.3-3.7 26.7-8 5.8-3 11.1-6.6 15.9-10.9 2.2-1.9 4.3-4 6.2-6.2 6.4-7.2 11.3-15.4 14.4-24.4 3.2-9 4.4-18.2 3.8-27.4z"  horiz-adv-x="1024" />

    
    <glyph glyph-name="CPU" unicode="&#58954;" d="M195.254237 802.711864h850.440678v-850.440678H195.254237zM256.867797 741.098305h729.38305v-729.383051H256.867797zM1067.389831-69.423729H173.125424V824.840678H1067.389831v-894.264407z m-21.694916 872.135593H195.254237v-850.440678h850.440678v850.440678zM994.061017 3.905085H246.454237V751.511864h747.60678v-747.606779z m-18.223729 729.383051H264.677966v-710.725424h710.725424V733.288136zM442.142373 214.779661H798.372881v-14.752542h-356.230508zM509.830508 157.938983h220.854238v-10.413559h-220.854238zM876.040678 522.413559h-27.335593v-154.901695H759.322034V522.413559h-28.20339v-180.935593H876.474576V522.413559z m-189.179661 0h-148.39322v-180.935593h28.203389v70.725424h120.189831V522.413559z m-120.189831-84.176271V496.379661h91.986441v-58.576271h-91.986441z m-68.555932-70.725424h-104.135593V496.379661h103.701695v26.033898H364.474576v-180.935593h133.20678v26.033898zM876.040678 522.413559v2.60339H846.101695v-154.901695h-84.61017V525.016949h-33.410169v-186.142373h150.562712V525.016949h-2.60339v-2.60339h-2.60339v-178.332203H733.288136V519.810169h23.430508v-154.901694h94.589831V519.810169h24.732203v2.60339h-2.60339 2.60339z m-189.179661 0v2.60339h-150.99661v-186.142373h33.410169v70.725424h120.189831V525.016949h-2.60339v-2.60339h-2.60339v-107.606779H564.067797v-70.725424h-23.430509V519.810169h145.789831v2.60339h-2.60339 3.037288z m-120.189831-84.176271h2.60339V493.776271h86.779661V440.40678h-89.383051v-2.169492h2.60339-2.60339v-2.60339h94.155933V498.983051H564.067797v-63.783051h2.603389v3.037288z m-68.555932-70.725424v2.60339H396.583051V493.776271h103.701695v31.240678H361.871186v-186.142373h138.41356v31.240678h-2.60339v-2.60339h-2.60339v-23.430508H367.077966V519.810169h128v-20.827118H391.376271v-134.508475h106.305085v3.037288h-2.60339 3.037288zM219.986441 879.945763h26.467796v-59.01017h-26.467796zM272.054237 879.945763h26.467797v-59.01017h-26.467797zM324.122034 879.945763h26.467797v-59.01017h-26.467797zM376.189831 879.945763h26.467796v-59.01017h-26.467796zM427.823729 879.945763h26.467796v-59.01017h-26.467796zM479.891525 879.945763h26.467797v-59.01017h-26.467797zM531.959322 879.945763h26.467797v-59.01017h-26.467797zM583.59322 879.945763h26.467797v-59.01017h-26.467797zM635.661017 879.945763h26.467797v-59.01017h-26.467797zM687.728814 879.945763h26.467796v-59.01017h-26.467796zM739.362712 879.945763h26.467796v-59.01017h-26.467796zM791.430508 879.945763h26.467797v-59.01017h-26.467797zM843.498305 879.945763h26.467797v-59.01017h-26.467797zM895.132203 879.945763h26.467797v-59.01017h-26.467797zM947.2 879.945763h26.467797v-59.01017h-26.467797zM999.267797 879.945763h26.467796v-59.01017h-26.467796zM1119.813424 780.561356v-26.467797h-59.01017v26.467797zM1119.683254 728.628068v-26.467797h-59.010169v26.467797zM1119.978305 676.690441v-26.467797h-59.010169v26.467797zM1119.848136 624.757153v-26.467797h-59.01017v26.467797zM1119.717966 572.823864v-26.467796h-59.010169v26.467796zM1120.017356 520.886237v-26.467796h-59.01017v26.467796zM1119.882847 468.957288v-26.467796h-59.010169v26.467796zM1119.748339 417.019661v-26.467797h-59.01017v26.467797zM1120.052068 365.082034v-26.467797h-59.01017v26.467797zM1119.917559 313.148746v-26.467797h-59.010169v26.467797zM1119.783051 261.215458v-26.467797h-59.01017v26.467797zM1120.082441 209.282169v-26.467796h-59.01017v26.467796zM1119.952271 157.344542v-26.467796h-59.010169v26.467796zM1119.817763 105.411254v-26.467796h-59.01017v26.467796zM1119.683254 53.477966v-26.467797h-59.010169v26.467797zM1119.986983 1.544678v-26.467797h-59.010169v26.467797zM179.79878 780.366102v-26.467797h-59.01017v26.467797zM179.664271 728.432814v-26.467797h-59.010169v26.467797zM179.968 676.499525v-26.467796h-59.010169v26.467796zM179.833492 624.566237v-26.467796h-59.01017v26.467796zM179.698983 572.632949v-26.467796h-59.010169v26.467796zM179.998373 520.695322v-26.467797h-59.01017v26.467797zM179.868203 468.762034v-26.467797h-59.010169v26.467797zM179.733695 416.828746v-26.467797h-59.01017v26.467797zM180.033085 364.891119v-26.467797h-59.01017v26.467797zM179.902915 312.957831v-26.467797h-59.010169v26.467797zM179.768407 261.024542v-26.467796h-59.01017v26.467796zM180.067797 209.091254v-26.467796H121.057627v26.467796zM179.937627 157.157966v-26.467797h-59.010169v26.467797zM179.803119 105.220339v-26.467797h-59.01017v26.467797zM179.66861 53.282712v-26.467797h-59.010169v26.467797zM179.968 1.349424v-26.467797h-59.010169v26.467797zM219.986441-60.311864h26.467796V-119.322034h-26.467796zM272.054237-60.311864h26.467797V-119.322034h-26.467797zM324.122034-60.311864h26.467797V-119.322034h-26.467797zM376.189831-60.311864h26.467796V-119.322034h-26.467796zM427.823729-60.311864h26.467796V-119.322034h-26.467796zM479.891525-60.311864h26.467797V-119.322034h-26.467797zM531.959322-60.311864h26.467797V-119.322034h-26.467797zM583.59322-60.311864h26.467797V-119.322034h-26.467797zM635.661017-60.311864h26.467797V-119.322034h-26.467797zM687.728814-60.311864h26.467796V-119.322034h-26.467796zM739.362712-60.311864h26.467796V-119.322034h-26.467796zM791.430508-60.311864h26.467797V-119.322034h-26.467797zM843.498305-60.311864h26.467797V-119.322034h-26.467797zM895.132203-60.311864h26.467797V-119.322034h-26.467797zM947.2-60.311864h26.467797V-119.322034h-26.467797zM999.267797-60.311864h26.467796V-119.322034h-26.467796zM303.728814 702.047458m-13.450848 0a13.450847 13.450847 0 1 1 26.901695 0 13.450847 13.450847 0 1 1-26.901695 0ZM937.220339 702.047458m-13.450847 0a13.450847 13.450847 0 1 1 26.901694 0 13.450847 13.450847 0 1 1-26.901694 0ZM303.728814 52.935593m-13.450848 0a13.450847 13.450847 0 1 1 26.901695 0 13.450847 13.450847 0 1 1-26.901695 0ZM937.220339 52.935593m-13.450847 0a13.450847 13.450847 0 1 1 26.901694 0 13.450847 13.450847 0 1 1-26.901694 0Z"  horiz-adv-x="1232" />

    
    <glyph glyph-name="loudong" unicode="&#58913;" d="M736 608c-0.16 123.42-100.38 223.42-224 223.42S288.16 731.42 288 608zM64 352h160v-64H64zM64.004 45.255l183.763 183.763 45.254-45.255L109.258 0zM109.263 639.999L301.83 447.432l-45.255-45.254L64.008 594.744zM960 288H800v64h160zM914.75 0L730.985 183.763l45.255 45.254 183.763-183.762zM960.002 594.74L767.436 402.174l-45.255 45.255 192.566 192.566zM224 512v-320c0-140.8 115.2-256 256-256V576H288a64.19 64.19 0 0 1-64-64z m512 64H544v-640c140.8 0 256 115.2 256 256V512a64.19 64.19 0 0 1-64 64z"  horiz-adv-x="1024" />

    
    <glyph glyph-name="ruokoulingguizeguanli" unicode="&#59003;" d="M568 448a256.08 256.08 0 0 1-429 117 256 256 0 0 1 362-362 254.43 254.43 0 0 1 67 117h136v-192h128V320h128V448zM320 256a128 128 0 1 0 128 128 128.14 128.14 0 0 0-128-128z"  horiz-adv-x="1024" />

    
    <glyph glyph-name="Rectanglex" unicode="&#58885;" d="M984.615385 462.769231h-118.153847a39.384615 39.384615 0 0 1-39.384615-39.384616v-157.538461a39.384615 39.384615 0 0 1 39.384615-39.384616h118.153847v-275.692307a78.769231 78.769231 0 0 0-78.769231-78.769231H118.153846a78.769231 78.769231 0 0 0-78.769231 78.769231V817.230769a78.769231 78.769231 0 0 0 78.769231 78.769231h589.824L984.615385 579.072V462.769231zM157.538462 147.692308a39.384615 39.384615 0 0 1-39.384616-39.384616v-118.153846a39.384615 39.384615 0 0 1 39.384616-39.384615h551.384615a39.384615 39.384615 0 0 1 39.384615 39.384615v118.153846a39.384615 39.384615 0 0 1-39.384615 39.384616H157.538462zM157.538462 817.230769a39.384615 39.384615 0 0 1-39.384616-39.384615v-236.307692a39.384615 39.384615 0 0 1 39.384616-39.384616h39.384615a39.384615 39.384615 0 0 1 39.384615 39.384616V777.846154a39.384615 39.384615 0 0 1-39.384615 39.384615H157.538462z m236.307692 0a39.384615 39.384615 0 0 1-39.384616-39.384615v-236.307692a39.384615 39.384615 0 0 1 39.384616-39.384616h39.384615a39.384615 39.384615 0 0 1 39.384616 39.384616V777.846154a39.384615 39.384615 0 0 1-39.384616 39.384615H393.846154z m236.307692 0a39.384615 39.384615 0 0 1-39.384615-39.384615v-236.307692a39.384615 39.384615 0 0 1 39.384615-39.384616h39.384616a39.384615 39.384615 0 0 1 39.384615 39.384616V777.846154a39.384615 39.384615 0 0 1-39.384615 39.384615h-39.384616z"  horiz-adv-x="1024" />

    


  </font>
</defs>
</svg>
